<?xml version="1.0" encoding="utf-8"?>
<!-- Generator: Adobe Illustrator 25.0.1, SVG Export Plug-In . SVG Version: 6.00 Build 0)  -->
<svg version="1.1" id="Layer_2" xmlns="http://www.w3.org/2000/svg" xmlns:xlink="http://www.w3.org/1999/xlink" x="0px" y="0px"
	 viewBox="0 0 80 30" style="enable-background:new 0 0 80 30;" xml:space="preserve">
<style type="text/css">
	.st0{fill:#FFFFFF;}
	.st1{fill:none;stroke:#00A395;stroke-width:0.25;stroke-miterlimit:10;}
	.st2{fill:none;stroke:#FFFFFF;stroke-width:0.25;stroke-miterlimit:10;}
</style>
<g>
	<path class="st0" d="M38.83,28.75c0,0-0.07-1.61-2.23-1.23c0,0-0.21-0.62-1.1-0.96s-1.34-1.13-1.34-1.13s-1.11-1.69-1.38-2.48
		c-0.04-0.13-0.17-0.2-0.3-0.17c-0.66,0.15-2.43,0.48-2.57-0.3c-0.17-0.96-1.17-2.3-1.17-2.3s-0.47-0.22-0.09-0.32
		c0.39-0.1,0.45-0.23,0.45-0.23s-1.06-1.98-4.36-2.15c0,0-0.63-0.09-2.95,0.56c-2.31,0.64-3.42,0.85-3.42,0.85s-2.78,0.25-4.29-1.41
		c-0.36-0.4-0.87-0.98-1.11-1.26c-0.09-0.11-0.16-0.22-0.21-0.36l-0.4-1.05c0,0-0.32-0.5,0.41-0.68c0.73-0.18,1.32-0.37,1.32-0.37
		s0.5-0.26-0.21-0.82s-1.04-0.73-1.04-0.73s-0.19-0.32,0.46-0.85c0.66-0.53,0.73-1.76,0.73-1.76l-0.23-1.61c0,0-0.36-0.27-0.67,0.41
		c-0.31,0.68-0.6,1.67-0.6,1.67S11.94,11.11,12,9.97c0.05-1.13,0.8-1.76,0.8-1.76s1.45-1.53,1.65-2.33s-0.1-1.93-0.1-1.93
		s-0.68-1.25-1.18-1.16c-0.5,0.09,0.39,0.77,0.39,0.77s0.44,0.31,0.41,0.59c-0.03,0.28-0.26,0.3-0.26,0.3s-0.42-0.77-0.62-0.75
		c-0.19,0.03,0.15,0.63,0.15,0.63s0.53,0.45,0.59,0.86c0.06,0.41-0.13,1.12-0.13,1.12s-0.33,1.09-0.66,0.36
		c-0.32-0.73-0.55-1.66-0.55-1.66s-0.01-1.32,0.1-1.66c0.12-0.33,0.19-1.27,0.19-1.27l-0.23-1.04c0,0-0.78-0.96-0.48,0.19
		c0.31,1.16,0.18,1.45,0.18,1.45L12.1,3.42c0,0-0.3,0.45-0.68-0.3c-0.39-0.75-1.17-1.59-1.17-1.59s-0.23-0.28-0.42-0.36
		C9.63,1.09,9.44,1.23,9.44,1.23s0.32,0.87,0.77,1.3c0.45,0.42,0.87,1.02,0.87,1.02s0.71,1.07,0.95,1.92s0.37,1.25,0.37,1.25
		s-0.03,0.86-0.33,0.89c-0.31,0.03-0.41-0.48-0.41-0.48s-0.35-0.63-0.31,0.36s0.01,1.75,0.01,1.75s-0.05,1.5-0.67,1.71
		s-1.14-0.27-1.14-0.27s-0.8-1.62-0.91-2.22c-0.12-0.6-0.48,0.08-0.48,0.08S8.14,9.09,8.31,9.25S7.98,9.41,7.98,9.41
		S7.07,9.06,6.84,8.66c-0.23-0.4-0.64-0.8-0.53-1.21c0.12-0.41,0.66-0.53,0.66-0.53S7.33,6.85,7.44,6.7
		c0.12-0.15-0.03-0.42-0.03-0.42S7.3,6.03,6.75,6.28C6.2,6.54,6.04,6.67,6.04,6.67s-0.51,0.35-0.5-0.28
		c0.01-0.63,0.19-0.77,0.19-0.77s0.55-0.4,0.31-0.85S5.43,5.22,5.43,5.22S5.17,5.46,5.3,4.61s0.3-1.77,0.3-1.77s0.15-1.58-0.68-0.28
		c0,0-0.05,0.93-0.09,1.63S4.71,4.97,4.71,4.97s-0.3,0.32-0.37-0.39S4.5,3.66,4.5,3.66s0.08-0.77-0.45-0.33S3.9,4.99,3.9,4.99
		l0.5,1.4c0,0,0.23,0.54-0.18,0.94s0.09,1.23,0.09,1.23s1.12,0.78,1.85,0.98c0.73,0.19,1.66,0.49,1.66,0.49s1.08,0.41,1.13,0.99
		S8.13,11.2,8.13,11.2s-0.62-0.4-1.32-0.66c-0.71-0.26-1.08-0.3-1.08-0.3s-0.31,1.41,0.95,2.15s1.72,0.45,1.72,0.45l0.71-0.31
		c0,0,0.17,0.82-0.33,1.62s-0.12,3.52-0.12,3.52s0.21,2.17,1.67,3.57s1.54,1.4,1.54,1.4s0.27,0.39-0.8,0.68
		c-1.07,0.3-3.01,0.95-3.01,0.95s-1.97,0.81-1.04,2.02c0.93,1.21,4.04,2.75,4.04,2.75s1.17,0.24,2.19,0.26c1.02,0.02,1.84,0,1.84,0
		l-0.33-1.13c0,0-0.53,0.05-0.66-0.27s-0.91,0.23-0.91,0.23l-0.36,0.22c0,0-0.09-0.58-0.9-0.63c-0.81-0.05-1.83-0.35-1.83-0.35
		s-2.17-0.82-1.67-1.34s1.49-0.28,1.49-0.28s1.52,0.27,2.98-0.23s2.08-0.75,2.08-0.75s1.47,0.6,3.57,0.14
		c2.11-0.46,2.79-0.58,2.79-0.58s2.44-0.63,4.71,0.59c2.26,1.22,3.14,0.94,3.14,0.94s1.5-0.23,2.22-0.53
		c0.11-0.04,0.22-0.04,0.32,0.01l2.51,1.35l0.77,0.64c0,0,0.37,0.8,1.48,0.91c1.11,0.11,1.39,0.58,1.39,0.58
		S38.73,29.49,38.83,28.75z"/>
	<circle class="st1" cx="25.3" cy="19.5" r="0.61"/>
	<circle class="st1" cx="25.3" cy="19.5" r="1.02"/>
	<line class="st2" x1="24.14" y1="19.5" x2="26.47" y2="19.5"/>
	<line class="st2" x1="25.3" y1="18.33" x2="25.3" y2="20.69"/>
	<line class="st1" x1="26.02" y1="18.78" x2="24.57" y2="20.22"/>
	<line class="st1" x1="24.57" y1="18.78" x2="26.02" y2="20.22"/>
	<circle class="st1" cx="27.88" cy="21.86" r="0.74"/>
	<circle class="st1" cx="27.88" cy="21.86" r="1.24"/>
	<line class="st2" x1="26.46" y1="21.86" x2="29.31" y2="21.86"/>
	<line class="st2" x1="27.88" y1="20.44" x2="27.88" y2="23.3"/>
	<line class="st1" x1="28.75" y1="20.98" x2="27" y2="22.74"/>
	<line class="st1" x1="27" y1="20.98" x2="28.75" y2="22.74"/>
</g>
<g>
	<path class="st0" d="M69.62,28.56c0,0-0.05-1.27-1.75-0.97c0,0-0.16-0.49-0.86-0.76c-0.7-0.27-1.05-0.89-1.05-0.89
		s-0.87-1.33-1.09-1.95c-0.03-0.1-0.14-0.15-0.24-0.13c-0.52,0.12-1.91,0.38-2.02-0.24c-0.13-0.76-0.92-1.81-0.92-1.81
		s-0.37-0.17-0.07-0.25c0.3-0.08,0.35-0.18,0.35-0.18s-0.84-1.56-3.43-1.69c0,0-0.5-0.07-2.32,0.44c-1.82,0.51-2.69,0.67-2.69,0.67
		s-2.19,0.2-3.37-1.11c-0.28-0.31-0.68-0.77-0.87-0.99c-0.07-0.08-0.13-0.18-0.17-0.28l-0.31-0.83c0,0-0.25-0.39,0.32-0.54
		c0.58-0.14,1.04-0.29,1.04-0.29s0.39-0.2-0.16-0.65c-0.56-0.45-0.82-0.58-0.82-0.58s-0.15-0.25,0.36-0.67s0.58-1.39,0.58-1.39
		l-0.18-1.27c0,0-0.28-0.21-0.53,0.32c-0.24,0.54-0.48,1.32-0.48,1.32s-0.49,0.82-0.45-0.07c0.04-0.89,0.63-1.39,0.63-1.39
		s1.14-1.2,1.3-1.83c0.15-0.63-0.08-1.52-0.08-1.52s-0.54-0.98-0.93-0.91c-0.39,0.07,0.3,0.61,0.3,0.61s0.34,0.24,0.32,0.47
		c-0.02,0.22-0.2,0.23-0.2,0.23s-0.33-0.61-0.49-0.59c-0.15,0.02,0.12,0.5,0.12,0.5s0.41,0.35,0.47,0.68
		c0.05,0.32-0.1,0.88-0.1,0.88s-0.26,0.86-0.52,0.28c-0.25-0.58-0.44-1.31-0.44-1.31s-0.01-1.04,0.08-1.31s0.15-1,0.15-1l-0.18-0.82
		c0,0-0.62-0.76-0.37,0.15s0.14,1.14,0.14,1.14l-0.12,0.57c0,0-0.23,0.35-0.54-0.23c-0.3-0.59-0.92-1.25-0.92-1.25
		s-0.18-0.22-0.33-0.28c-0.15-0.06-0.3,0.05-0.3,0.05s0.25,0.69,0.61,1.02c0.35,0.33,0.69,0.8,0.69,0.8s0.56,0.84,0.75,1.51
		c0.19,0.67,0.29,0.98,0.29,0.98s-0.02,0.68-0.26,0.7s-0.32-0.37-0.32-0.37s-0.27-0.5-0.24,0.28c0.03,0.78,0.01,1.38,0.01,1.38
		s-0.04,1.18-0.53,1.35c-0.49,0.16-0.9-0.21-0.9-0.21s-0.63-1.28-0.72-1.75s-0.37,0.06-0.37,0.06s-0.02,0.45,0.11,0.58
		c0.13,0.13-0.25,0.12-0.25,0.12s-0.72-0.27-0.9-0.59c-0.18-0.31-0.51-0.63-0.41-0.95c0.09-0.32,0.52-0.41,0.52-0.41
		s0.28-0.06,0.37-0.18s-0.02-0.33-0.02-0.33s-0.09-0.19-0.53,0.01c-0.44,0.2-0.56,0.3-0.56,0.3s-0.4,0.27-0.39-0.22
		c0.01-0.5,0.15-0.61,0.15-0.61s0.44-0.31,0.24-0.67c-0.19-0.35-0.49,0.35-0.49,0.35s-0.2,0.19-0.1-0.48s0.23-1.4,0.23-1.4
		s0.12-1.24-0.54-0.22c0,0-0.04,0.73-0.07,1.29c-0.03,0.56-0.09,0.62-0.09,0.62s-0.23,0.25-0.29-0.3c-0.06-0.56,0.13-0.73,0.13-0.73
		s0.06-0.61-0.35-0.26c-0.41,0.34-0.12,1.31-0.12,1.31l0.39,1.1c0,0,0.18,0.43-0.14,0.74c-0.32,0.31,0.07,0.97,0.07,0.97
		s0.88,0.62,1.46,0.77c0.58,0.15,1.31,0.38,1.31,0.38s0.85,0.32,0.89,0.78c0.04,0.46-0.65,0.14-0.65,0.14s-0.49-0.31-1.04-0.52
		c-0.56-0.2-0.85-0.23-0.85-0.23s-0.24,1.11,0.75,1.69c0.99,0.58,1.36,0.35,1.36,0.35l0.56-0.24c0,0,0.13,0.65-0.26,1.28
		s-0.09,2.77-0.09,2.77s0.16,1.71,1.32,2.81c1.15,1.1,1.21,1.1,1.21,1.1s0.21,0.3-0.63,0.54c-0.84,0.23-2.37,0.75-2.37,0.75
		s-1.55,0.64-0.82,1.59s3.18,2.17,3.18,2.17s0.92,0.19,1.73,0.2c0.8,0.02,1.45,0,1.45,0l-0.26-0.89c0,0-0.41,0.04-0.52-0.21
		c-0.1-0.25-0.72,0.18-0.72,0.18l-0.28,0.17c0,0-0.07-0.46-0.71-0.5c-0.64-0.04-1.44-0.27-1.44-0.27s-1.71-0.65-1.32-1.05
		c0.39-0.4,1.17-0.22,1.17-0.22s1.19,0.21,2.35-0.18c1.15-0.39,1.64-0.59,1.64-0.59s1.15,0.48,2.81,0.11s2.2-0.46,2.2-0.46
		s1.92-0.5,3.7,0.47c1.78,0.96,2.47,0.74,2.47,0.74s1.18-0.18,1.75-0.41c0.08-0.03,0.17-0.03,0.25,0.01l1.98,1.07l0.61,0.51
		c0,0,0.29,0.63,1.17,0.72c0.88,0.09,1.09,0.46,1.09,0.46S69.54,29.14,69.62,28.56z"/>
	<circle class="st1" cx="58.97" cy="21.28" r="0.48"/>
	<circle class="st1" cx="58.97" cy="21.28" r="0.81"/>
	<line class="st2" x1="58.05" y1="21.28" x2="59.89" y2="21.28"/>
	<line class="st2" x1="58.97" y1="20.36" x2="58.97" y2="22.21"/>
	<line class="st1" x1="59.54" y1="20.71" x2="58.4" y2="21.85"/>
	<line class="st1" x1="58.4" y1="20.71" x2="59.54" y2="21.85"/>
	<circle class="st1" cx="61" cy="23.14" r="0.58"/>
	<circle class="st1" cx="61" cy="23.14" r="0.98"/>
	<line class="st2" x1="59.89" y1="23.14" x2="62.12" y2="23.14"/>
	<line class="st2" x1="61" y1="22.02" x2="61" y2="24.27"/>
	<line class="st1" x1="61.69" y1="22.44" x2="60.31" y2="23.83"/>
	<line class="st1" x1="60.31" y1="22.44" x2="61.69" y2="23.83"/>
</g>
</svg>
