<?xml version="1.0" encoding="utf-8"?>
<!-- Generator: Adobe Illustrator 25.0.1, SVG Export Plug-In . SVG Version: 6.00 Build 0)  -->
<svg version="1.1" id="Layer_2" xmlns="http://www.w3.org/2000/svg" xmlns:xlink="http://www.w3.org/1999/xlink" x="0px" y="0px"
	 viewBox="0 0 80 30" style="enable-background:new 0 0 80 30;" xml:space="preserve">
<style type="text/css">
	.st0{fill:#C7202E;}
	.st1{fill:none;stroke:#C7202E;stroke-width:0.25;stroke-miterlimit:10;}
	.st2{fill:none;stroke:#FFFFFF;stroke-width:0.25;stroke-miterlimit:10;}
	.st3{fill:none;stroke:#C9202F;stroke-width:0.25;stroke-miterlimit:10;}
</style>
<g>
	<path class="st0" d="M41.18,28.75c0,0,0.07-1.61,2.23-1.23c0,0,0.21-0.62,1.1-0.96s1.34-1.13,1.34-1.13s1.11-1.69,1.38-2.48
		c0.04-0.13,0.17-0.2,0.3-0.17c0.66,0.15,2.43,0.48,2.57-0.3c0.17-0.96,1.17-2.3,1.17-2.3s0.47-0.22,0.09-0.32
		c-0.39-0.1-0.45-0.23-0.45-0.23s1.06-1.98,4.36-2.15c0,0,0.63-0.09,2.95,0.56c2.31,0.64,3.42,0.85,3.42,0.85s2.78,0.25,4.29-1.41
		c0.36-0.4,0.87-0.98,1.11-1.26c0.09-0.11,0.16-0.22,0.21-0.36l0.4-1.05c0,0,0.32-0.5-0.41-0.68c-0.73-0.18-1.32-0.37-1.32-0.37
		s-0.5-0.26,0.21-0.82s1.04-0.73,1.04-0.73s0.19-0.32-0.46-0.85c-0.66-0.53-0.73-1.76-0.73-1.76l0.23-1.61c0,0,0.36-0.27,0.67,0.41
		s0.6,1.67,0.6,1.67s0.62,1.04,0.57-0.09c-0.05-1.13-0.8-1.76-0.8-1.76s-1.45-1.53-1.65-2.33s0.1-1.93,0.1-1.93s0.68-1.25,1.18-1.16
		c0.5,0.09-0.39,0.77-0.39,0.77s-0.44,0.31-0.41,0.59c0.03,0.28,0.26,0.3,0.26,0.3s0.42-0.77,0.62-0.75
		c0.19,0.03-0.15,0.63-0.15,0.63s-0.53,0.45-0.59,0.86s0.13,1.12,0.13,1.12s0.33,1.09,0.66,0.36c0.32-0.73,0.55-1.66,0.55-1.66
		s0.01-1.32-0.1-1.66s-0.19-1.27-0.19-1.27l0.23-1.04c0,0,0.78-0.96,0.48,0.19S67.76,2.7,67.76,2.7l0.15,0.72c0,0,0.3,0.45,0.68-0.3
		s1.17-1.59,1.17-1.59s0.23-0.28,0.42-0.36s0.39,0.06,0.39,0.06s-0.32,0.87-0.77,1.3c-0.45,0.42-0.87,1.02-0.87,1.02
		s-0.71,1.07-0.95,1.92S67.6,6.71,67.6,6.71s0.03,0.86,0.33,0.89s0.41-0.48,0.41-0.48s0.35-0.63,0.31,0.36s-0.01,1.75-0.01,1.75
		s0.05,1.5,0.67,1.71s1.14-0.27,1.14-0.27s0.8-1.62,0.91-2.22c0.12-0.6,0.48,0.08,0.48,0.08s0.03,0.57-0.14,0.73
		s0.32,0.15,0.32,0.15s0.91-0.35,1.14-0.75c0.23-0.4,0.64-0.8,0.53-1.21s-0.66-0.53-0.66-0.53s-0.36-0.08-0.48-0.23
		c-0.12-0.15,0.03-0.42,0.03-0.42s0.12-0.24,0.67,0.01c0.55,0.26,0.71,0.39,0.71,0.39s0.51,0.35,0.5-0.28
		c-0.01-0.63-0.19-0.77-0.19-0.77s-0.55-0.4-0.31-0.85s0.62,0.45,0.62,0.45s0.26,0.24,0.13-0.6c-0.13-0.85-0.3-1.77-0.3-1.77
		s-0.15-1.58,0.68-0.28c0,0,0.05,0.93,0.09,1.63c0.04,0.71,0.12,0.78,0.12,0.78s0.3,0.32,0.37-0.39c0.08-0.71-0.17-0.93-0.17-0.93
		s-0.08-0.77,0.45-0.33s0.15,1.66,0.15,1.66l-0.5,1.4c0,0-0.23,0.54,0.18,0.94c0.41,0.4-0.09,1.23-0.09,1.23s-1.12,0.78-1.85,0.98
		c-0.73,0.19-1.66,0.49-1.66,0.49s-1.08,0.41-1.13,0.99c-0.05,0.58,0.82,0.18,0.82,0.18s0.62-0.4,1.32-0.66
		c0.71-0.26,1.08-0.3,1.08-0.3s0.31,1.41-0.95,2.15s-1.72,0.45-1.72,0.45l-0.71-0.31c0,0-0.17,0.82,0.33,1.62
		c0.5,0.8,0.12,3.52,0.12,3.52s-0.21,2.17-1.67,3.57s-1.54,1.4-1.54,1.4s-0.27,0.39,0.8,0.68c1.07,0.3,3.01,0.95,3.01,0.95
		s1.97,0.81,1.04,2.02c-0.93,1.21-4.04,2.75-4.04,2.75s-1.17,0.24-2.19,0.26c-1.02,0.02-1.84,0-1.84,0l0.33-1.13
		c0,0,0.53,0.05,0.66-0.27s0.91,0.23,0.91,0.23l0.36,0.22c0,0,0.09-0.58,0.9-0.63c0.81-0.05,1.83-0.35,1.83-0.35
		s2.17-0.82,1.67-1.34s-1.49-0.28-1.49-0.28s-1.52,0.27-2.98-0.23c-1.47-0.5-2.08-0.75-2.08-0.75s-1.47,0.6-3.57,0.14
		c-2.11-0.46-2.79-0.58-2.79-0.58s-2.44-0.63-4.71,0.59c-2.26,1.22-3.14,0.94-3.14,0.94s-1.5-0.23-2.22-0.53
		c-0.11-0.04-0.22-0.04-0.32,0.01l-2.51,1.35l-0.77,0.64c0,0-0.37,0.8-1.48,0.91c-1.11,0.11-1.39,0.58-1.39,0.58
		S41.28,29.49,41.18,28.75z"/>
	<circle class="st1" cx="53.17" cy="19.28" r="0.23"/>
	<g>
		<circle class="st2" cx="54.71" cy="19.5" r="0.61"/>
		<circle class="st2" cx="54.71" cy="19.5" r="1.02"/>
		<line class="st3" x1="55.87" y1="19.5" x2="53.54" y2="19.5"/>
		<line class="st3" x1="54.71" y1="18.33" x2="54.71" y2="20.69"/>
		<line class="st2" x1="53.99" y1="18.78" x2="55.44" y2="20.22"/>
		<line class="st2" x1="55.44" y1="18.78" x2="53.99" y2="20.22"/>
	</g>
	<g>
		<circle class="st2" cx="52.13" cy="21.86" r="0.74"/>
		<circle class="st2" cx="52.13" cy="21.86" r="1.24"/>
		<line class="st3" x1="53.55" y1="21.86" x2="50.7" y2="21.86"/>
		<line class="st3" x1="52.13" y1="20.44" x2="52.13" y2="23.3"/>
		<line class="st2" x1="51.26" y1="20.98" x2="53.01" y2="22.74"/>
		<line class="st2" x1="53.01" y1="20.98" x2="51.26" y2="22.74"/>
	</g>
</g>
<g>
	<path class="st0" d="M10.39,28.56c0,0,0.05-1.27,1.75-0.97c0,0,0.16-0.49,0.86-0.76c0.7-0.27,1.05-0.89,1.05-0.89
		s0.87-1.33,1.09-1.95c0.03-0.1,0.14-0.15,0.24-0.13c0.52,0.12,1.91,0.38,2.02-0.24c0.13-0.76,0.92-1.81,0.92-1.81
		s0.37-0.17,0.07-0.25c-0.3-0.08-0.35-0.18-0.35-0.18s0.84-1.56,3.43-1.69c0,0,0.5-0.07,2.32,0.44c1.82,0.51,2.69,0.67,2.69,0.67
		s2.19,0.2,3.37-1.11c0.28-0.31,0.68-0.77,0.87-0.99c0.07-0.08,0.13-0.18,0.17-0.28l0.31-0.83c0,0,0.25-0.39-0.32-0.54
		s-1.04-0.29-1.04-0.29s-0.39-0.2,0.16-0.65c0.56-0.45,0.82-0.58,0.82-0.58s0.15-0.25-0.36-0.67s-0.58-1.39-0.58-1.39l0.18-1.27
		c0,0,0.28-0.21,0.53,0.32c0.24,0.54,0.48,1.32,0.48,1.32s0.49,0.82,0.45-0.07c-0.04-0.89-0.63-1.39-0.63-1.39s-1.14-1.2-1.3-1.83
		c-0.15-0.63,0.08-1.52,0.08-1.52s0.54-0.98,0.93-0.91C31,8.2,30.3,8.74,30.3,8.74s-0.34,0.24-0.32,0.47
		c0.02,0.22,0.2,0.23,0.2,0.23s0.33-0.61,0.49-0.59c0.15,0.02-0.12,0.5-0.12,0.5s-0.41,0.35-0.47,0.68c-0.05,0.32,0.1,0.88,0.1,0.88
		s0.26,0.86,0.52,0.28c0.25-0.58,0.44-1.31,0.44-1.31s0.01-1.04-0.08-1.31s-0.15-1-0.15-1l0.18-0.82c0,0,0.62-0.76,0.37,0.15
		s-0.14,1.14-0.14,1.14l0.12,0.57c0,0,0.23,0.35,0.54-0.23c0.3-0.59,0.92-1.25,0.92-1.25s0.18-0.22,0.33-0.28
		c0.15-0.06,0.3,0.05,0.3,0.05s-0.25,0.69-0.61,1.02c-0.35,0.33-0.69,0.8-0.69,0.8s-0.56,0.84-0.75,1.51
		c-0.19,0.67-0.29,0.98-0.29,0.98s0.02,0.68,0.26,0.7s0.32-0.37,0.32-0.37s0.27-0.5,0.24,0.28c-0.03,0.78-0.01,1.38-0.01,1.38
		s0.04,1.18,0.53,1.35c0.49,0.16,0.9-0.21,0.9-0.21s0.63-1.28,0.72-1.75s0.37,0.06,0.37,0.06s0.02,0.45-0.11,0.58
		c-0.13,0.13,0.25,0.12,0.25,0.12s0.72-0.27,0.9-0.59c0.18-0.31,0.51-0.63,0.41-0.95c-0.09-0.32-0.52-0.41-0.52-0.41
		s-0.28-0.06-0.37-0.18s0.02-0.33,0.02-0.33s0.09-0.19,0.53,0.01c0.44,0.2,0.56,0.3,0.56,0.3s0.4,0.27,0.39-0.22
		c-0.01-0.5-0.15-0.61-0.15-0.61s-0.44-0.31-0.24-0.67c0.19-0.35,0.49,0.35,0.49,0.35s0.2,0.19,0.1-0.48s-0.23-1.4-0.23-1.4
		s-0.12-1.24,0.54-0.22c0,0,0.04,0.73,0.07,1.29c0.03,0.56,0.09,0.62,0.09,0.62s0.23,0.25,0.29-0.3c0.06-0.56-0.13-0.73-0.13-0.73
		s-0.06-0.61,0.35-0.26c0.41,0.34,0.12,1.31,0.12,1.31l-0.39,1.1c0,0-0.18,0.43,0.14,0.74c0.32,0.31-0.07,0.97-0.07,0.97
		s-0.88,0.62-1.46,0.77c-0.58,0.15-1.31,0.38-1.31,0.38s-0.85,0.32-0.89,0.78c-0.04,0.46,0.65,0.14,0.65,0.14s0.49-0.31,1.04-0.52
		c0.56-0.2,0.85-0.23,0.85-0.23s0.24,1.11-0.75,1.69c-0.99,0.58-1.36,0.35-1.36,0.35l-0.56-0.24c0,0-0.13,0.65,0.26,1.28
		s0.09,2.77,0.09,2.77s-0.16,1.71-1.32,2.81c-1.15,1.1-1.21,1.1-1.21,1.1s-0.21,0.3,0.63,0.54c0.84,0.23,2.37,0.75,2.37,0.75
		s1.55,0.64,0.82,1.59s-3.18,2.17-3.18,2.17s-0.92,0.19-1.73,0.2c-0.8,0.02-1.45,0-1.45,0l0.26-0.89c0,0,0.41,0.04,0.52-0.21
		s0.72,0.18,0.72,0.18l0.28,0.17c0,0,0.07-0.46,0.71-0.5C32.2,27.71,33,27.48,33,27.48s1.71-0.65,1.32-1.05
		c-0.39-0.4-1.17-0.22-1.17-0.22s-1.19,0.21-2.35-0.18c-1.15-0.39-1.64-0.59-1.64-0.59s-1.15,0.48-2.81,0.11s-2.2-0.46-2.2-0.46
		s-1.92-0.5-3.7,0.47c-1.78,0.96-2.47,0.74-2.47,0.74s-1.18-0.18-1.75-0.41c-0.08-0.03-0.17-0.03-0.25,0.01l-1.98,1.07l-0.61,0.51
		c0,0-0.29,0.63-1.17,0.72c-0.88,0.09-1.09,0.46-1.09,0.46S10.47,29.14,10.39,28.56z"/>
	<circle class="st1" cx="19.83" cy="21.1" r="0.18"/>
	<g>
		<circle class="st2" cx="21.04" cy="21.28" r="0.48"/>
		<circle class="st2" cx="21.04" cy="21.28" r="0.81"/>
		<line class="st3" x1="21.96" y1="21.28" x2="20.12" y2="21.28"/>
		<line class="st3" x1="21.04" y1="20.36" x2="21.04" y2="22.21"/>
		<line class="st2" x1="20.47" y1="20.71" x2="21.61" y2="21.85"/>
		<line class="st2" x1="21.61" y1="20.71" x2="20.47" y2="21.85"/>
	</g>
	<g>
		<circle class="st2" cx="19.01" cy="23.14" r="0.58"/>
		<circle class="st2" cx="19.01" cy="23.14" r="0.98"/>
		<line class="st3" x1="20.12" y1="23.14" x2="17.89" y2="23.14"/>
		<line class="st3" x1="19.01" y1="22.02" x2="19.01" y2="24.27"/>
		<line class="st2" x1="18.32" y1="22.44" x2="19.7" y2="23.83"/>
		<line class="st2" x1="19.7" y1="22.44" x2="18.32" y2="23.83"/>
	</g>
</g>
</svg>
