<?xml version="1.0" encoding="utf-8"?>
<!-- Generator: Adobe Illustrator 25.0.1, SVG Export Plug-In . SVG Version: 6.00 Build 0)  -->
<svg version="1.1" id="Layer_1" xmlns="http://www.w3.org/2000/svg" xmlns:xlink="http://www.w3.org/1999/xlink" x="0px" y="0px"
	 viewBox="0 0 60 60" style="enable-background:new 0 0 60 60;" xml:space="preserve">
<style type="text/css">
	.st0{fill:#C7202E;}
</style>
<g>
	<path class="st0" d="M47.36,17.26H12.95c-1.83,0-3.32-1.48-3.32-3.32v0c0-1.83,1.48-3.32,3.32-3.32h34.42
		c1.83,0,3.32,1.48,3.32,3.32v0C50.68,15.78,49.2,17.26,47.36,17.26z"/>
	<path class="st0" d="M47.05,33.32H12.64c-1.83,0-3.32-1.48-3.32-3.32v0c0-1.83,1.48-3.32,3.32-3.32h34.42
		c1.83,0,3.32,1.48,3.32,3.32v0C50.37,31.83,48.88,33.32,47.05,33.32z"/>
	<path class="st0" d="M47.36,49.37H12.95c-1.83,0-3.32-1.48-3.32-3.32v0c0-1.83,1.48-3.32,3.32-3.32h34.42
		c1.83,0,3.32,1.48,3.32,3.32v0C50.68,47.89,49.2,49.37,47.36,49.37z"/>
</g>
</svg>
