<svg id="Layer_1" data-name="Layer 1" xmlns="http://www.w3.org/2000/svg" viewBox="0 0 116.22 51.36"><defs><style>.cls-1{fill:#098072;}.cls-2{fill:#fff;}.cls-3{fill:#c7202e;}</style></defs><rect class="cls-1" x="3.71" y="10.88" width="71.14" height="30.72" rx="1.19" transform="translate(-6.06 4.38) rotate(-11.75)"/><path class="cls-2" d="M15.44,35.16c.48-.28.81-.26,1,0s0,.52-.37.88c-.64.63-.79,1.22-.46,1.75a1.37,1.37,0,0,0,1.25.64A3.55,3.55,0,0,0,18.44,38a6.44,6.44,0,0,0,2.6-2.3A1.74,1.74,0,0,0,21.19,34a2,2,0,0,0-.69-.79,9.76,9.76,0,0,0-1.33-.65c-.88-.37-1.65-.7-2.31-1a3.24,3.24,0,0,1-1.57-1.33c-.72-1.3-.52-3,.72-5.26a15.31,15.31,0,0,1,2.55-3.3,10.18,10.18,0,0,1,2.73-2A3.48,3.48,0,0,1,23,19.28a1.34,1.34,0,0,1,1.25.86c.3.81.05,1.92-.68,3.32a16.68,16.68,0,0,1-2.67,3.7,5.49,5.49,0,0,1-1.32,1.12,1,1,0,0,1-.69.09.49.49,0,0,1-.33-.23c-.13-.28.08-.66.64-1.16a14.79,14.79,0,0,0,2.56-2.93c.88-1.34,1.24-2.31,1-2.91a.62.62,0,0,0-.59-.38,1.5,1.5,0,0,0-.77.17A8.41,8.41,0,0,0,19,22.86a9.79,9.79,0,0,0-2.32,3.78,3.4,3.4,0,0,0,0,2.59A3,3,0,0,0,18,30.43c.5.26,1.11.54,1.82.84a15.31,15.31,0,0,1,1.77.89A3,3,0,0,1,22.8,33.4c.41.88.16,1.93-.7,3.12a7.85,7.85,0,0,1-3,2.41,5.84,5.84,0,0,1-3.34.73,2.15,2.15,0,0,1-1.63-.9A2,2,0,0,1,14,36.89a3.58,3.58,0,0,1,.77-1.18A3.21,3.21,0,0,1,15.44,35.16Z" transform="translate(-1.54 -4.17)"/><path class="cls-2" d="M25.65,32.86l.09.21a.76.76,0,0,0,.34.39,1.51,1.51,0,0,0,1.29,0c1.14-.42,2.16-1.63,3.18-3.73.18-.36.37-.58.56-.64a.39.39,0,0,1,.33,0,.32.32,0,0,1,.15.16c.11.33-.18,1-.81,2.07a11.3,11.3,0,0,1-1.69,2.18,5.34,5.34,0,0,1-1.93,1.31,2.35,2.35,0,0,1-1.84,0,1.78,1.78,0,0,1-.88-1c-.57-1.28-.42-2.85.58-4.75a5.71,5.71,0,0,1,2.67-2.87,1.24,1.24,0,0,1,.76-.06.82.82,0,0,1,.62.54,3.12,3.12,0,0,1-.16,1.85A8.23,8.23,0,0,1,25.65,32.86Zm-.07-1a6.08,6.08,0,0,0,2.31-3.3,1,1,0,0,0,0-.6c-.06-.16-.18-.21-.37-.14a2.38,2.38,0,0,0-.89.88A6.21,6.21,0,0,0,25.58,31.83Z" transform="translate(-1.54 -4.17)"/><path class="cls-2" d="M36.17,23.49c.8-.21,1.29.06,1.46.81a3.21,3.21,0,0,1-.39,2.17c-.31.6-.63.94-1,1a.39.39,0,0,1-.52-.32.57.57,0,0,1,0-.39l.28-.39a2.92,2.92,0,0,0,.38-.81,1.07,1.07,0,0,0,.08-.54c0-.15-.15-.19-.32-.15a2.13,2.13,0,0,0-.85.69A7.81,7.81,0,0,0,34,28.29a4.83,4.83,0,0,0-.3,2.66.84.84,0,0,0,.33.45.93.93,0,0,0,.81.14A3.6,3.6,0,0,0,36.61,30a14.58,14.58,0,0,0,1.33-2.19c.18-.38.36-.6.55-.64a.42.42,0,0,1,.32.07.41.41,0,0,1,.18.24,4.79,4.79,0,0,1-.93,2.23c-1.08,1.81-2.13,2.82-3.26,3.1A2.05,2.05,0,0,1,33,32.57a2,2,0,0,1-.75-1.05,5.5,5.5,0,0,1,.27-3.41,10.13,10.13,0,0,1,2.06-3.55A3.48,3.48,0,0,1,36.17,23.49Z" transform="translate(-1.54 -4.17)"/><path class="cls-2" d="M42.71,26.22a23.24,23.24,0,0,1,3-3.42,13.68,13.68,0,0,1,1.41-1.17,1.79,1.79,0,0,1,.49-.29.63.63,0,0,1,.5.27.43.43,0,0,1,.17.3q0,.27-.51.78c-1,.91-1.4,1.56-1.35,1.95,0,.22.17.31.43.28A5.49,5.49,0,0,0,49,23.65a1,1,0,0,1,.45-.22.35.35,0,0,1,.25.1.39.39,0,0,1,.16.26c0,.3-.37.78-1.14,1.47a4.55,4.55,0,0,1-2.38,1.21,1.76,1.76,0,0,1-.91-.13.76.76,0,0,1-.44-.67,1.41,1.41,0,0,1,.2-.85,12.47,12.47,0,0,0-2.33,3.12,15.82,15.82,0,0,0-1.23,3.14c-.13.45-.35.71-.67.76a.47.47,0,0,1-.62-.39,10.21,10.21,0,0,1,.31-2.62,16.47,16.47,0,0,1,1.79-5.2c.47-.8.92-1.24,1.32-1.31a.66.66,0,0,1,.39.05.42.42,0,0,1,.25.32,1.16,1.16,0,0,1-.22.65c0,.05-.27.41-.66,1.07A6.56,6.56,0,0,0,42.71,26.22Z" transform="translate(-1.54 -4.17)"/><path class="cls-2" d="M50.66,27.32l0,.26a1,1,0,0,0,.2.56,1.42,1.42,0,0,0,1.23.5c1.2,0,2.53-1,4.15-3,.28-.34.53-.51.73-.5a.44.44,0,0,1,.39.4c0,.4-.49,1.07-1.41,2a10.75,10.75,0,0,1-2.27,1.8,4.61,4.61,0,0,1-2.21.73,2.18,2.18,0,0,1-1.75-.68A2.38,2.38,0,0,1,49.19,28a6.62,6.62,0,0,1,2-5.05c1.24-1.39,2.4-2.13,3.42-2.17a1.09,1.09,0,0,1,.74.21,1,1,0,0,1,.43.83,4,4,0,0,1-.72,2A8.21,8.21,0,0,1,50.66,27.32Zm.24-1.17a6.76,6.76,0,0,0,1.59-.89,7,7,0,0,0,1.6-1.9,1.2,1.2,0,0,0,.21-.66c0-.2-.11-.3-.3-.29a2.11,2.11,0,0,0-1.12.64A7,7,0,0,0,50.9,26.15Z" transform="translate(-1.54 -4.17)"/><path class="cls-2" d="M63.66,20.42a21.79,21.79,0,0,0-2.09,3.45A11.18,11.18,0,0,0,60.22,28a1,1,0,0,0,.13.6.54.54,0,0,0,.45.24c.48,0,1.08-.4,1.84-1.33A20.73,20.73,0,0,0,64,25.75c.22-.33.44-.49.66-.46a.42.42,0,0,1,.32.18.39.39,0,0,1,.1.3,7.54,7.54,0,0,1-1.65,2.46c-1.24,1.51-2.27,2.21-3.18,2.14a1.54,1.54,0,0,1-1.2-.82,2.51,2.51,0,0,1-.27-1.33,11,11,0,0,1,1.14-4.34c.19-.4.69-1.39,1.58-2.95a2.73,2.73,0,0,1-.66.08,1.13,1.13,0,0,1-.58-.17.64.64,0,0,1-.33-.55.73.73,0,0,1,.48-.62,9.15,9.15,0,0,1,1.2-.17,9.56,9.56,0,0,0,1.14-.25,23.45,23.45,0,0,1,2.06-2.62,13,13,0,0,1,1.12-1.18,1.16,1.16,0,0,1,.75-.36.6.6,0,0,1,.41.25.55.55,0,0,1,.16.44,4.21,4.21,0,0,1-1.09,1.57c-.45.51-.79.92-1,1.23a10.93,10.93,0,0,1,2.64-.27c.6.06.88.34.82.83a.62.62,0,0,1-.37.52,2.06,2.06,0,0,1-.86.07,16.3,16.3,0,0,0-2.49.4Z" transform="translate(-1.54 -4.17)"/><path class="cls-3" d="M116.15,45.79,96.47,44.58l2.26,10.73a.18.18,0,0,1-.32.15L89.69,44.17l-.19,0L68.9,42.88a1.52,1.52,0,0,1-1.4-1.78L71.5,19a1.52,1.52,0,0,1,1.55-1.24L113.18,19a1.5,1.5,0,0,1,1.45,1.32l3.12,23.73A1.52,1.52,0,0,1,116.15,45.79Z" transform="translate(-1.54 -4.17)"/><path class="cls-2" d="M73.52,34.67l1.14-2.06c.65,1,1.35,1.73,2.24,1.79.71,0,1.16-.42,1.21-1.22v0c0-.76-.2-1.16-1.47-1.82-1.54-.79-2.51-1.61-2.35-4.31v0c.14-2.47,1.38-4,3-3.94a3.53,3.53,0,0,1,2.8,1.9l-1,2.2a3,3,0,0,0-2-1.46c-.66,0-1,.46-1.07,1.13v0c-.05.9.27,1.21,1.59,1.89,1.54.81,2.38,1.86,2.24,4.23v0c-.16,2.7-1.44,4.15-3.13,4A4.1,4.1,0,0,1,73.52,34.67Z" transform="translate(-1.54 -4.17)"/><path class="cls-2" d="M84.42,23.54l1.59.1,2.55,13.9-1.8-.1-.54-3.1-3.31-.19-.9,3-1.75-.11Zm1.34,8.12L85,27.19l-1.3,4.35Z" transform="translate(-1.54 -4.17)"/><path class="cls-2" d="M90.57,24l1.58.1,3.18,8.59.49-8.38,1.7.1L96.72,38l-1.46-.08L92,29.06l-.51,8.65-1.69-.1Z" transform="translate(-1.54 -4.17)"/><path class="cls-2" d="M101.06,27.39l-2.38-.14.16-2.76,6.49.38-.16,2.76-2.39-.14-.64,10.85-1.72-.1Z" transform="translate(-1.54 -4.17)"/><path class="cls-2" d="M108.33,25l1.59.1L112.47,39l-1.8-.11-.54-3.09-3.31-.2-.89,3-1.76-.1Zm1.34,8.12-.78-4.48L107.59,33Z" transform="translate(-1.54 -4.17)"/></svg>