<svg xmlns="http://www.w3.org/2000/svg" viewBox="0 0 549.23 586.22"><defs><style>.cls-1{fill:#098072;}.cls-2{opacity:0.09;}.cls-10,.cls-11,.cls-13,.cls-3,.cls-8{opacity:0.3;}.cls-4,.cls-9{opacity:0.39;}.cls-10,.cls-5,.cls-9{fill:#c1becb;}.cls-6{fill:#ed2024;}.cls-7{fill:#fff;}.cls-8{fill:#c4c2c2;}.cls-11,.cls-12{fill:#262626;}.cls-14{fill:#e0dfe5;}.cls-15{fill:#c7202e;}</style></defs><g id="Layer_3" data-name="Layer 3"><rect class="cls-1" x="408.52" y="45.47" width="54.31" height="23.45" rx="4.53"/><rect class="cls-1" x="311.42" y="78.72" width="54.31" height="23.45" rx="4.53"/><rect class="cls-1" x="377.66" y="78.72" width="54.31" height="23.45" rx="4.53"/><rect class="cls-1" x="445.55" y="78.72" width="54.31" height="23.45" rx="4.53"/><rect class="cls-1" x="294.71" y="111.97" width="54.31" height="23.45" rx="4.53"/><rect class="cls-1" x="360.95" y="111.97" width="54.31" height="23.45" rx="4.53"/><rect class="cls-1" x="428.83" y="111.97" width="54.31" height="23.45" rx="4.53"/><rect class="cls-1" x="494.92" y="111.97" width="54.31" height="23.45" rx="4.53"/><rect class="cls-1" x="417.78" y="145.85" width="54.31" height="23.45" rx="4.53"/><rect class="cls-1" x="484.02" y="145.85" width="54.31" height="23.45" rx="4.53"/><rect class="cls-1" y="478.51" width="54.31" height="23.45" rx="4.53"/><rect class="cls-1" x="66.08" y="478.51" width="54.31" height="23.45" rx="4.53"/><rect class="cls-1" x="55.18" y="512.39" width="54.31" height="23.45" rx="4.53"/></g><g id="Layer_2_copy" data-name="Layer 2 copy"><path d="M332.4,184l.65.52Z" transform="translate(-58.44 -31.89)"/><g class="cls-2"><path d="M320.22,362.11l.91.42c7.64,3.6,10.75,8.32,11.87,10.6a24.4,24.4,0,0,0,1.33,2.4c1.73,2.69,6.35,11.56,12.95,37.09,8.11,31.36-10,72.45-11.67,76.23a5.77,5.77,0,0,0-.22.58c-1.33,4.12-16.37,50-33.92,69.65a51.31,51.31,0,0,0-5.07,6.73c-7.27,11.33-10.81,25.23-12.52,35.65-.71,4.31-1.11,8-1.33,10.69a5.6,5.6,0,0,1-5,5.1C221.12,623.34,196.69,595,196.69,595s-28.25-28.26-33.19-53.22c-3.91-19.8-14.57-30.11-18.8-33.52a28.38,28.38,0,0,1-4.11-4.09c-22.81-27.81-27.82-54.83-28.91-66.44a35.49,35.49,0,0,1,.76-11.3c1.83-7.91,6.59-24.34,18.15-47.85a31.41,31.41,0,0,1,8.28-10.29l.07-.06a5.57,5.57,0,0,0-.66-9.11,87.23,87.23,0,0,1-17.8-14.2,5.61,5.61,0,0,1,4.32-9.52c9.89.52,22-.4,29.89-3.18,9.63-3.42,26.25-22.94,33.82-32.3a20.5,20.5,0,0,1,12.57-7.4c15.81-2.59,23.47,5.52,26.35,8.76a32.84,32.84,0,0,1,2,2.94c.68,1.21,1.91,3.34,1.91,13.66.05-9.72,1.25-11.78,1.92-13a30.37,30.37,0,0,1,2-2.95c2.88-3.24,10.53-11.34,26.35-8.75a20.46,20.46,0,0,1,12.57,7.4c7.56,9.36,24.18,28.88,33.81,32.3,7.87,2.78,20,3.69,29.9,3.18a5.61,5.61,0,0,1,4.32,9.52A84.36,84.36,0,0,1,320.22,362.11Z" transform="translate(-58.44 -31.89)"/></g><g class="cls-3"><path d="M385.57,251.52c-18.79,2.46-23.28-9.81-24.3-17.32a14.32,14.32,0,0,1,2.3-9.9,27.39,27.39,0,0,1,2.32-3,2.81,2.81,0,0,0,.16-3.59c-3.27-4.22-12.05-14.56-28.66-27.7a24.42,24.42,0,0,1-3-2.82l5.56,12.31a1.9,1.9,0,0,1,.14.4,34,34,0,0,1-.06,17.28c-2,6.9-4.46,7.26-5.52,7.05l-.09,0v26.65c0-.31,0,1.21-.08.9v1.12a2.3,2.3,0,0,1,0,.37c-2.57,21.56-22.53,38.35-46.76,38.35-21.48,0-39.6-13.19-45.23-31.2a11.19,11.19,0,0,0-10.64-8H231a11.19,11.19,0,0,0-10.64,8c-5.63,18-23.75,31.2-45.23,31.2-24.49,0-44.61-17.14-46.83-39,0-.11,0-.22,0-.33V219.45a.91.91,0,0,0,0-.23,4.16,4.16,0,0,1,.81-2.36l.83-.81.39-.37a6.5,6.5,0,0,0-.16-2.76,11.59,11.59,0,0,0-1.89-4l-.19-.29a2.8,2.8,0,0,0-5.19,1.47,16.88,16.88,0,0,0,1.13,6c-6.79-5.55,2.26-21,2.26-21l2.86-5.13a2.72,2.72,0,0,0,.36-1.37V149.44c0-.71,0-1.43.09-2.14.56-6.39,4.09-37.06,21-50.78a5,5,0,0,1,1-.61c1.54-.73,7.06-4.17,13.57-17.65,7.68-15.91,25.51-27.7,25.51-27.7S205.74,37.39,237,39c28.66,1.5,37.28,6.92,38.52,7.82a2.55,2.55,0,0,0,.39.24c2.27,1.14,21.31,11.21,27.74,29.52,5.36,15.21,11.89,19.54,14.49,20.71a9,9,0,0,1,2.79,2c3.53,3.64,11.52,13.24,11.31,25.33a3.87,3.87,0,0,0,.9,2.52l21.15,26a17.11,17.11,0,0,1,1.22,1.71c3.47,5.61,21.81,35.65,23.3,46.82A62.83,62.83,0,0,0,381.09,213a2.75,2.75,0,0,0,2.24,1.84,27.5,27.5,0,0,1,5.81,1.54,19.48,19.48,0,0,1,12.37,14.82C402.94,239.2,401.47,249.44,385.57,251.52Z" transform="translate(-58.44 -31.89)"/></g><path d="M130.15,212.92a6.5,6.5,0,0,1,.16,2.76l-.39.37a4,4,0,0,0-.83.81,4.16,4.16,0,0,0-.81,2.36.91.91,0,0,1,0,.23,1.87,1.87,0,0,1-1.46,1.48c-1.21.25-2.6.33-2.24-.79a5.1,5.1,0,0,0-.17-3.16v0a5.84,5.84,0,0,0-.33-.79l0-.06c-1.79-4.39-2.18-12.62,4.25-21.94,0,0-2.75,11,0,14.81A11.59,11.59,0,0,1,130.15,212.92Z" transform="translate(-58.44 -31.89)"/><path d="M159.05,208a50.28,50.28,0,0,1,10.73-2.29,25.09,25.09,0,0,1-.72,3.77S160.83,212.8,159.05,208Z" transform="translate(-58.44 -31.89)"/><path d="M272.14,207.9c.65,1.66-1.28,5.28-3.05,5.1l-6.87-2.09a24.93,24.93,0,0,0,6-1.65c1.27-.53,2.58-1,3.91-1.43Z" transform="translate(-58.44 -31.89)"/><path d="M306.87,209.26a24.59,24.59,0,0,0,5.57,1.58,1.88,1.88,0,0,1-1.34.21l-8.21-1.58a9.08,9.08,0,0,0-2.08-.16c-2.9.11-9.68,1.84-9.52-.11a7.87,7.87,0,0,1,1.42-3.47A49.71,49.71,0,0,1,306.87,209.26Z" transform="translate(-58.44 -31.89)"/><path d="M333.05,184.5l-.65-.52Z" transform="translate(-58.44 -31.89)"/><g class="cls-4"><path d="M169.78,205.74a25.09,25.09,0,0,1-.72,3.77s-8.23,3.29-10-1.48A50.28,50.28,0,0,1,169.78,205.74Z" transform="translate(-58.44 -31.89)"/></g><g class="cls-3"><path d="M130.31,215.68l-.39.37-.83.81-.84.82-1.88,1.82s-.5.84-2-2.52v0c-.11-.24-.22-.5-.33-.79l0-.06c-1.79-4.39-2.18-12.62,4.25-21.94,0,0-2.75,11,0,14.81a11.59,11.59,0,0,1,1.89,4A6.5,6.5,0,0,1,130.31,215.68Z" transform="translate(-58.44 -31.89)"/></g><g class="cls-3"><path d="M269.09,213l-6.87-2.09a24.93,24.93,0,0,0,6-1.65c1.27-.53,2.58-1,3.91-1.43l0,.07C272.79,209.56,270.86,213.18,269.09,213Z" transform="translate(-58.44 -31.89)"/></g><g class="cls-3"><path d="M312.44,210.84a1.88,1.88,0,0,1-1.34.21l-8.21-1.58a9.08,9.08,0,0,0-2.08-.16c-2.9.11-9.68,1.84-9.52-.11a7.87,7.87,0,0,1,1.42-3.47,49.71,49.71,0,0,1,14.16,3.53A24.59,24.59,0,0,0,312.44,210.84Z" transform="translate(-58.44 -31.89)"/></g><g class="cls-3"><path d="M332.4,184l.65.52Z" transform="translate(-58.44 -31.89)"/></g><path d="M130.15,212.92a6.5,6.5,0,0,1,.16,2.76l-.39.37-.83.81a4.16,4.16,0,0,0-.81,2.36.91.91,0,0,1,0,.23v-2A6.21,6.21,0,0,1,130.15,212.92Z" transform="translate(-58.44 -31.89)"/><path d="M159.05,208a50.28,50.28,0,0,1,10.73-2.29,25.09,25.09,0,0,1-.72,3.77S160.83,212.8,159.05,208Z" transform="translate(-58.44 -31.89)"/><path d="M272.14,207.9c.65,1.66-1.28,5.28-3.05,5.1l-6.87-2.09a24.93,24.93,0,0,0,6-1.65c1.27-.53,2.58-1,3.91-1.43Z" transform="translate(-58.44 -31.89)"/><path d="M306.87,209.26a24.59,24.59,0,0,0,5.57,1.58,1.88,1.88,0,0,1-1.34.21l-8.21-1.58a9.08,9.08,0,0,0-2.08-.16c-2.9.11-9.68,1.84-9.52-.11a7.87,7.87,0,0,1,1.42-3.47A49.71,49.71,0,0,1,306.87,209.26Z" transform="translate(-58.44 -31.89)"/><path d="M128.17,249.82v7.71a39.2,39.2,0,0,1,0-7.71Z" transform="translate(-58.44 -31.89)"/><path d="M334.32,257.42v.12h0A.49.49,0,0,0,334.32,257.42Z" transform="translate(-58.44 -31.89)"/><g class="cls-3"><path d="M323.73,349.94s-20.16,5.07-30.59,1.78" transform="translate(-58.44 -31.89)"/><path class="cls-5" d="M323.73,349.94a36.69,36.69,0,0,1-7.38,2.69,47.8,47.8,0,0,1-7.72,1.36,37.83,37.83,0,0,1-7.89,0,19.68,19.68,0,0,1-7.6-2.26,67.29,67.29,0,0,0,7.67-.1c2.51-.14,5-.39,7.54-.62l7.61-.68C318.51,350.12,321.08,349.94,323.73,349.94Z" transform="translate(-58.44 -31.89)"/></g><g class="cls-3"><path d="M308.44,360.77S258,365.57,241,328.54" transform="translate(-58.44 -31.89)"/><path class="cls-5" d="M308.44,360.77a73.83,73.83,0,0,1-20,.33,72.83,72.83,0,0,1-19.55-4.85,53.82,53.82,0,0,1-17-10.93A43.64,43.64,0,0,1,241,328.54a57.67,57.67,0,0,0,12.44,15,55.82,55.82,0,0,0,7.9,5.59,63,63,0,0,0,8.68,4.29,80,80,0,0,0,9.21,3.15c3.12.91,6.32,1.57,9.54,2.17A130.71,130.71,0,0,0,308.44,360.77Z" transform="translate(-58.44 -31.89)"/></g><g class="cls-3"><path d="M323.73,342.39s-36.35,5.49-52.12-8.5" transform="translate(-58.44 -31.89)"/><path class="cls-5" d="M323.73,342.39a68.35,68.35,0,0,1-13.47,2.2c-2.28.18-4.56.2-6.85.21s-4.57-.19-6.86-.39a54.28,54.28,0,0,1-13.45-3,28.09,28.09,0,0,1-11.49-7.48,41.64,41.64,0,0,0,12.21,5.25,85.21,85.21,0,0,0,13.05,2.28c4.41.5,8.86.69,13.34.83S319.18,342.39,323.73,342.39Z" transform="translate(-58.44 -31.89)"/></g><g class="cls-3"><path d="M298.36,332.38c-.69-.41-21.8-11.52-28.18-20.29s-17.9-8.23-17.9-8.23" transform="translate(-58.44 -31.89)"/><path class="cls-5" d="M298.36,332.38a90,90,0,0,1-12.57-6,78.84,78.84,0,0,1-11.56-7.95c-.87-.81-1.78-1.57-2.6-2.46-.41-.44-.84-.86-1.24-1.32s-.78-.95-1.15-1.45a22.22,22.22,0,0,0-2.05-2.5,10.24,10.24,0,0,0-1.17-1.11l-.6-.54-.66-.48a27.27,27.27,0,0,0-12.48-4.69,21.4,21.4,0,0,1,13.77,2.73,20.16,20.16,0,0,1,5.47,4.89,34.77,34.77,0,0,0,4.66,4.66q2.56,2.19,5.32,4.22c1.8,1.4,3.7,2.68,5.54,4C290.79,327,294.6,329.63,298.36,332.38Z" transform="translate(-58.44 -31.89)"/></g><g class="cls-3"><path d="M138.92,349.24s20.16,5.07,30.59,1.78" transform="translate(-58.44 -31.89)"/><path class="cls-5" d="M138.92,349.24c2.65,0,5.22.18,7.77.38l7.61.69c2.52.23,5,.48,7.54.61a65.06,65.06,0,0,0,7.67.1,19.51,19.51,0,0,1-7.6,2.26,37.16,37.16,0,0,1-7.89,0,47.78,47.78,0,0,1-7.72-1.35A36.73,36.73,0,0,1,138.92,349.24Z" transform="translate(-58.44 -31.89)"/></g><g class="cls-3"><path d="M154.21,360.07s50.4,4.8,67.41-32.22" transform="translate(-58.44 -31.89)"/><path class="cls-5" d="M154.21,360.07a130.7,130.7,0,0,0,19.64-2c3.22-.61,6.42-1.27,9.54-2.18a81.85,81.85,0,0,0,9.21-3.14,64.26,64.26,0,0,0,8.68-4.3,55,55,0,0,0,7.9-5.59,57.46,57.46,0,0,0,12.44-15,43.53,43.53,0,0,1-10.87,16.77,53.47,53.47,0,0,1-17,10.93,75,75,0,0,1-9.63,3.11,76.61,76.61,0,0,1-9.92,1.75A73.83,73.83,0,0,1,154.21,360.07Z" transform="translate(-58.44 -31.89)"/></g><g class="cls-3"><path d="M138.92,341.7s36.35,5.48,52.12-8.51" transform="translate(-58.44 -31.89)"/><path class="cls-5" d="M138.92,341.7c4.55,0,9.05,0,13.52-.14s8.93-.34,13.34-.83a84,84,0,0,0,13.05-2.29A41.64,41.64,0,0,0,191,333.19a27.89,27.89,0,0,1-11.49,7.48,53.84,53.84,0,0,1-13.45,3c-2.29.2-4.58.36-6.86.39s-4.57,0-6.85-.21A69.07,69.07,0,0,1,138.92,341.7Z" transform="translate(-58.44 -31.89)"/></g><g class="cls-3"><path d="M164.29,331.69c.69-.42,21.8-11.52,28.18-20.3s17.9-8.23,17.9-8.23" transform="translate(-58.44 -31.89)"/><path class="cls-5" d="M164.29,331.69c3.76-2.76,7.57-5.35,11.32-8,1.84-1.36,3.74-2.64,5.54-4s3.61-2.75,5.32-4.22a34.2,34.2,0,0,0,4.66-4.66,20,20,0,0,1,5.47-4.88,21.41,21.41,0,0,1,13.77-2.74,27.27,27.27,0,0,0-12.48,4.69l-.66.48-.6.55a10.15,10.15,0,0,0-1.17,1.1,22.34,22.34,0,0,0-2.05,2.51c-.37.49-.77,1-1.15,1.45s-.83.88-1.24,1.32c-.82.89-1.73,1.65-2.6,2.46a79.63,79.63,0,0,1-11.56,7.95A92.35,92.35,0,0,1,164.29,331.69Z" transform="translate(-58.44 -31.89)"/></g><g class="cls-3"><path d="M170.93,381.07s-35.4,25.51-10.3,64.18,33.32,44,32.5,65.42" transform="translate(-58.44 -31.89)"/><path class="cls-5" d="M171,381.19a65.85,65.85,0,0,0-11.35,14,51.16,51.16,0,0,0-3.9,8,51.84,51.84,0,0,0-2.4,8.54,40.54,40.54,0,0,0-.78,8.88v1.13l.1,1.12c.08.75.11,1.5.23,2.25a39.58,39.58,0,0,0,.92,4.43,45,45,0,0,0,3.27,8.46c.75,1.32,1.43,2.67,2.27,3.94s1.63,2.53,2.55,3.77q5.38,7.42,10.65,14.91c3.52,5,7.09,9.94,10.46,15.08s6.59,10.5,8.61,16.48l.39,1.11c.12.38.21.76.31,1.14.18.77.4,1.52.56,2.29a38.71,38.71,0,0,1,.62,4.65,50.05,50.05,0,0,1-.26,9.25H193l-.16-2.29c0-.76-.06-1.52-.17-2.27-.17-1.51-.33-3-.64-4.48a43.29,43.29,0,0,0-1-4.37c-.22-.71-.48-1.41-.72-2.11l-.37-1.05-.45-1c-2.33-5.47-5.68-10.52-9.08-15.55s-6.8-10.13-10.13-15.26-6.58-10.33-9.68-15.61c-.8-1.29-1.5-2.7-2.27-4-.4-.67-.71-1.38-1-2.07l-1-2.07a66.64,66.64,0,0,1-3.29-8.63,49,49,0,0,1-2-9.08c-.08-.78-.21-1.55-.23-2.33l-.1-2.35a39.06,39.06,0,0,1,.3-4.71,40.37,40.37,0,0,1,6.8-17.41,47.77,47.77,0,0,1,5.94-7.2,40.6,40.6,0,0,1,7.19-5.83Z" transform="translate(-58.44 -31.89)"/></g><g class="cls-3"><path d="M210.37,495.86s9.09,5.76,7.44,31.27,27.57,48.54,27.57,48.54,8.23,10.7,20.16,12.35" transform="translate(-58.44 -31.89)"/><path class="cls-5" d="M210.45,495.73a12.8,12.8,0,0,1,4.05,4.2,26.4,26.4,0,0,1,2.51,5.29,42.52,42.52,0,0,1,2.19,11.4,53.1,53.1,0,0,1,.06,5.78c-.12,1.9-.35,3.86-.52,5.69a29,29,0,0,0,.91,11.07,40.87,40.87,0,0,0,4.56,10.24,97.92,97.92,0,0,0,6.54,9.1,107.23,107.23,0,0,0,7.46,8.34c1.32,1.32,2.63,2.65,4,3.91s2.73,2.58,4.11,3.73l.16.13.1.14a39.51,39.51,0,0,0,3.88,4.26,41.39,41.39,0,0,0,4.49,3.76,32,32,0,0,0,5,3,29.33,29.33,0,0,0,5.58,2.07l0,.3a22.45,22.45,0,0,1-3-.36c-.5-.1-1-.19-1.51-.3l-1.49-.43a29.05,29.05,0,0,1-5.68-2.51,37.4,37.4,0,0,1-5.12-3.55,36,36,0,0,1-4.49-4.42l.26.27a82.34,82.34,0,0,1-15.8-16.77,69.75,69.75,0,0,1-9.87-20.69A47.15,47.15,0,0,1,216.84,528c-.08-2-.09-3.78-.1-5.67s-.06-3.72-.22-5.57a56.69,56.69,0,0,0-1.49-11,33.34,33.34,0,0,0-1.75-5.22,15.17,15.17,0,0,0-3-4.62Z" transform="translate(-58.44 -31.89)"/></g><g class="cls-3"><path d="M241,480.22s3.12,88.46,43.85,72.41" transform="translate(-58.44 -31.89)"/><path class="cls-5" d="M241.18,480.22c.75,4,1.35,8.07,2,12.09l.91,6c.32,2,.59,4,.84,6,.48,4,.81,8.12,1.68,12.1a62.51,62.51,0,0,0,3.76,11.59c.79,1.87,1.7,3.68,2.59,5.49s1.82,3.57,2.85,5.27a40.92,40.92,0,0,0,7.28,9.17,20.28,20.28,0,0,0,10,5.25,26.93,26.93,0,0,0,11.78-.75l.11.28a22.26,22.26,0,0,1-12.2,2.81,19.16,19.16,0,0,1-6.33-1.64,23.19,23.19,0,0,1-5.47-3.56,35.52,35.52,0,0,1-7.61-10.17,56.19,56.19,0,0,1-4.51-11.6c-1.12-4-2.09-8-3.16-11.91s-2.34-7.89-3.2-11.92a86.59,86.59,0,0,1-1.6-12.22,78.09,78.09,0,0,1,0-12.33Z" transform="translate(-58.44 -31.89)"/></g><g class="cls-3"><path d="M260.19,490.51c.82-1.65,13.44-29.08,36.89-46.22s17.15-39,17.15-39" transform="translate(-58.44 -31.89)"/><path class="cls-5" d="M260.06,490.44a70.54,70.54,0,0,1,5.4-12,76.94,76.94,0,0,1,7.28-11c2.75-3.45,5.95-6.52,8.93-9.72,1.54-1.56,3-3.2,4.55-4.75l2.28-2.38,2.36-2.31c.78-.78,1.57-1.56,2.41-2.27s1.66-1.46,2.51-2.18l2.44-2.11c.79-.72,1.67-1.34,2.4-2.11a49.55,49.55,0,0,0,4.25-4.69,24.41,24.41,0,0,0,1.91-2.51c.57-.88,1.2-1.72,1.73-2.62a39.1,39.1,0,0,0,4.78-11.6c.17-1,.45-2.07.58-3.12s.29-2.11.34-3.18a33.27,33.27,0,0,0-.13-6.46l.29-.08c2.89,8.43,1.46,18.22-3.11,26.07a42.77,42.77,0,0,1-8.74,10.29,11.13,11.13,0,0,1-1.3,1.06l-1.33,1c-.89.66-1.8,1.37-2.68,2-1.73,1.28-3.6,2.39-5.28,3.77l-2.56,2c-.84.7-1.63,1.44-2.43,2.17a59,59,0,0,0-4.55,4.67,103.76,103.76,0,0,0-7.64,10.56c-1.24,1.77-2.41,3.59-3.67,5.34l-3.63,5.39c-2.41,3.61-4.72,7.28-7.12,11Z" transform="translate(-58.44 -31.89)"/></g><g class="cls-3"><path d="M260.19,366.26s2.33,23,13,32.09,7.41,37.58,7.41,37.58" transform="translate(-58.44 -31.89)"/><path class="cls-5" d="M260.34,366.24c.93,3,1.74,6,2.61,8.95.2.75.44,1.48.67,2.21s.42,1.48.67,2.2c.46,1.46.93,2.91,1.36,4.38a38.06,38.06,0,0,0,3.32,8.56,14.73,14.73,0,0,0,1.27,1.91c.5.59,1,1.19,1.49,1.75s1.14,1,1.72,1.49a22.75,22.75,0,0,1,1.85,1.6,17.77,17.77,0,0,1,3,3.91,26.93,26.93,0,0,1,2,4.48,41.43,41.43,0,0,1,2,9.41,58.08,58.08,0,0,1,0,9.51,51,51,0,0,1-1.51,9.34l-.29,0c-.37-6.27-.65-12.43-1.41-18.48-.18-1.52-.4-3-.62-4.51s-.54-3-.9-4.42a26.22,26.22,0,0,0-3.49-8.14,15.18,15.18,0,0,0-1.44-1.71c-.54-.6-1.09-1.19-1.64-1.77L269.52,395c-.5-.62-.9-1.31-1.37-1.94a53.71,53.71,0,0,1-4.84-8.22,30,30,0,0,1-1.57-4.5,43.05,43.05,0,0,1-1.05-4.63,40.43,40.43,0,0,1-.65-9.45Z" transform="translate(-58.44 -31.89)"/></g><g class="cls-3"><path d="M228.79,381.07s-10.07,30.4,12.24,66.86" transform="translate(-58.44 -31.89)"/><path class="cls-5" d="M228.93,381.12c-.27,2.92-.5,5.78-.69,8.64l-.44,8.57c-.12,1.43-.28,2.87-.34,4.31a30,30,0,0,0,0,4.34,39,39,0,0,0,.54,4.31c.29,1.42.67,2.82,1,4.21,1.83,5.5,3.44,11,5.71,16.25l.73,2c.25.67.56,1.31.82,2,.55,1.33,1.09,2.66,1.6,4,1.08,2.68,2.34,5.28,3.3,8.09l-.26.15c-.94-1.13-1.82-2.3-2.68-3.5-.44-.6-.87-1.2-1.28-1.81a15.84,15.84,0,0,1-1.19-1.86c-.74-1.28-1.44-2.57-2.14-3.88-.35-.65-.71-1.3-1-2l-.85-2c-.56-1.37-1.09-2.75-1.58-4.14s-.8-2.85-1.19-4.28c-.18-.71-.39-1.42-.56-2.14s-.29-1.45-.4-2.18c-.24-1.46-.48-2.91-.62-4.38s-.24-2.94-.44-4.38-.26-2.92-.49-4.36-.4-2.9-.65-4.36c-.11-.73-.25-1.46-.33-2.2s-.13-1.47-.18-2.21-.1-1.48-.06-2.22.07-1.48.13-2.21a40.91,40.91,0,0,1,.57-4.41,31.21,31.21,0,0,1,2.7-8.45Z" transform="translate(-58.44 -31.89)"/></g><g class="cls-3"><path d="M203.55,373.66s-4,23.59-10.37,27.43S214.73,437,210.37,454.3s4.7,22.22,4.7,22.22" transform="translate(-58.44 -31.89)"/><path class="cls-5" d="M203.7,373.69a74.33,74.33,0,0,1-2.2,13.87,55.8,55.8,0,0,1-2.18,6.75,20,20,0,0,1-3.75,6.34,4.8,4.8,0,0,1-.73.69,6.82,6.82,0,0,1-.85.61l-.22.13-.07,0c-.06,0-.08.07-.13.09a1.06,1.06,0,0,0-.21.36,6,6,0,0,0,.15,2.93,34.16,34.16,0,0,0,2.39,6.42c2,4.18,4.41,8.16,6.8,12.16a90.61,90.61,0,0,1,6.47,12.5c1.77,4.37,3.32,9,3.26,14.06a17.44,17.44,0,0,1-.51,3.78l-.79,3.3c-.16,1.1-.43,2.2-.51,3.31l-.16,1.66c0,.55,0,1.1,0,1.66a19.72,19.72,0,0,0,1,6.51,12.31,12.31,0,0,0,3.67,5.53l-.14.26a9.37,9.37,0,0,1-2.85-2.19,13.5,13.5,0,0,1-2.08-3,19,19,0,0,1-2-7,30.31,30.31,0,0,1,.2-7.25c.19-1.17.44-2.4.66-3.51a15.38,15.38,0,0,0,.3-3.13,28.59,28.59,0,0,0-.79-6.5,57.15,57.15,0,0,0-1.92-6.49c-1.57-4.28-3.4-8.52-5.28-12.76s-4-8.37-6.21-12.49a64.61,64.61,0,0,1-3.1-6.36,12.19,12.19,0,0,1-.55-1.8,5.28,5.28,0,0,1-.08-2.12,3.1,3.1,0,0,1,.5-1.22,3,3,0,0,1,.49-.51l.28-.22.14-.12a3.59,3.59,0,0,0,.51-.46,6.68,6.68,0,0,0,.5-.55,26.17,26.17,0,0,0,3.14-5.7c.9-2.07,1.66-4.23,2.41-6.4,1.47-4.35,2.75-8.8,4.13-13.25Z" transform="translate(-58.44 -31.89)"/></g></g><g id="Layer_2" data-name="Layer 2"><path class="cls-6" d="M121.49,182.34v-39.9c0-.72,0-1.43.1-2.14.55-6.39,4.08-37.07,21-50.78a4.28,4.28,0,0,1,1-.61c1.53-.74,7-4.17,13.56-17.65,7.68-15.91,25.51-27.71,25.51-27.71S197.75,30.39,229,32s38.68,8,38.68,8,21.12,10.15,28,29.62c5.35,15.22,11.88,19.55,14.48,20.72a9,9,0,0,1,2.79,2c3.53,3.64,11.52,13.24,11.31,25.32a3.92,3.92,0,0,0,.9,2.53l21.15,26a14.73,14.73,0,0,1,1.22,1.71c3.47,5.61,21.81,35.65,23.3,46.82,1.65,12.34,3.29,13.44,3.29,13.44s-8.5-1.65-14.54,4.66c0,0-8.29-12.45-30.18-29.77a23.65,23.65,0,0,1-3-2.82c-3.46-3.88-15.33-15.51-40.31-24.74-30.45-11.24-61.17-10.15-61.17-10.15s-35.38-.27-55.41,8.78c-15.41,7-29.19,14.42-34.73,17.49a26.6,26.6,0,0,0-4.68,3.28Z" transform="translate(-58.44 -31.89)"/><path class="cls-7" d="M355.57,217.29a14.27,14.27,0,0,0-2.29,9.9c1,7.52,5.5,19.79,24.29,17.33,15.91-2.08,17.37-12.32,15.94-20.29a19.48,19.48,0,0,0-12.37-14.82C373.78,206.64,363.39,205.77,355.57,217.29Z" transform="translate(-58.44 -31.89)"/><path class="cls-8" d="M388.94,217.93s1.61,22-15.81,24.48C373.13,242.41,402.41,246.63,388.94,217.93Z" transform="translate(-58.44 -31.89)"/><path class="cls-7" d="M118.27,188.1s-9,15.43-2.26,21a5.9,5.9,0,0,1,.55,4c-.37,1.13,1,1.05,2.23.79a1.86,1.86,0,0,0,1.5-1.7c.06-1.67,1-4.42,6.55-4.37,8,.07,22.15-2.33,22.15-2.33s17.29-3.32,28.17-.51a30.53,30.53,0,0,0,11.43.36c5.87-1.15,15.7-1.87,35.32-3.38,0,0,20.28-1.41,32.43,4.34a18.27,18.27,0,0,0,8,1.8,66,66,0,0,0,17.9-2.85c10.52-3.12,21.92.2,26.83,2a15.53,15.53,0,0,0,5,.93c3.09.06,8.17.65,10.34,3.7s2.13,4.36,1.86,4.85a.34.34,0,0,0,.24.48c1.05.22,3.52-.14,5.51-7a33.92,33.92,0,0,0,0-17.48l-5.63-12.5L325.7,178s-19-15.77-33.26-21.05-30.24-10.63-54-12.41-51,2.95-51,2.95a152.08,152.08,0,0,0-36.55,13.71c-17.62,9.67-21.6,12.69-21.6,12.69l-7.82,8.43Z" transform="translate(-58.44 -31.89)"/><path class="cls-9" d="M156.33,163.21s-4.53,25.3-5.56,34.56,10.29,4.73,10.29,4.73,2.06-7,0-12.34S156.33,163.21,156.33,163.21Z" transform="translate(-58.44 -31.89)"/><path class="cls-10" d="M120.26,187.14s-2.74,11,0,14.81,2.06,6.72,2.06,6.72l-3.95,3.83s-.58,1-2.36-3.41S113.83,196.47,120.26,187.14Z" transform="translate(-58.44 -31.89)"/><path class="cls-10" d="M204.05,164.24c.37-.89,1.1-8.09-3.29-8.64s-7.27,18.1-7.27,18.1-2.05,18.11-7.26,22.22c-3.29,2.59-3.81,5.38-3.74,7.09a1.62,1.62,0,0,0,1.69,1.56c3.88-.21,14.64-.86,18.43-1.86,4.67-1.24,2.82-9.26,2.82-9.26S200.21,173.43,204.05,164.24Z" transform="translate(-58.44 -31.89)"/><path class="cls-10" d="M251.37,160.33s4.42,24.38.82,32.3a24.38,24.38,0,0,0-2.42,8,2.41,2.41,0,0,0,2.17,2.57l9.15,2.8c1.78.17,3.71-3.44,3.05-5.1a13,13,0,0,0-1.56-2.72c-3.5-4.83-7-21-7.2-27.87S250.36,153.72,251.37,160.33Z" transform="translate(-58.44 -31.89)"/><path class="cls-10" d="M294.32,175.73l-.68-11.39s-3.5-4.11-2.95,5.08,1.16,18.37-1.65,22.9-5.52,7.23-5.74,9.87c-.17,2,6.61.23,9.51.12a8.51,8.51,0,0,1,2.08.16l8.21,1.58s4,.89,0-5.63-7.75-17.35-7.75-17.35Z" transform="translate(-58.44 -31.89)"/><path class="cls-10" d="M328.74,189.47s2.37,11.52-2.57,18.82,4.73,2.36,4.73,2.36,2.57-3.61,1.44-9.77A52.14,52.14,0,0,0,328.74,189.47Z" transform="translate(-58.44 -31.89)"/><path class="cls-11" d="M124.24,142s-1.42-28.8,32.1-36.2c0,0,15.21-4.53,21.79-1s17.49-11.11,17.49-11.11,28.8-5.35,33.12-3.09,4.73-2.46,4.73-2.46S197.88,83,177.52,89,150.71,84,150.71,84a59.69,59.69,0,0,1-5.8,4.84,48.41,48.41,0,0,0-7.71,7.61S126.6,110.65,123.31,133,124.24,142,124.24,142Z" transform="translate(-58.44 -31.89)"/><path class="cls-11" d="M298.41,109.38S330,155.33,325.7,178l-2.52-2s-2.18-17-6-20.91-4.95-3.19-4.95-3.19l4.23-1s-3.6-12.65-6.48-15.94-3.5-2.78-3.5-2.78l1.23-2.06Z" transform="translate(-58.44 -31.89)"/><path class="cls-12" d="M326.4,210.39V245.3c-2.1,22-22.28,39.28-46.86,39.28-21.47,0-39.6-13.18-45.23-31.2a11.21,11.21,0,0,0-10.64-8H223a11.21,11.21,0,0,0-10.64,8c-5.63,18-23.75,31.2-45.23,31.2-24.55,0-44.71-17.22-46.85-39.19v-35a6.24,6.24,0,0,1,6.24-6.24h11.89a24.59,24.59,0,0,0,9.38-1.89,51.12,51.12,0,0,1,38.68,0,24.59,24.59,0,0,0,9.38,1.89h55a24.59,24.59,0,0,0,9.38-1.89,51.12,51.12,0,0,1,38.68,0,24.59,24.59,0,0,0,9.38,1.89h11.9A6.24,6.24,0,0,1,326.4,210.39Z" transform="translate(-58.44 -31.89)"/><path class="cls-12" d="M120.17,242.82v7.71a39.2,39.2,0,0,1,0-7.71Z" transform="translate(-58.44 -31.89)"/><path class="cls-12" d="M326.32,250.42v.12h0A.49.49,0,0,0,326.32,250.42Z" transform="translate(-58.44 -31.89)"/><path class="cls-13" d="M204.8,253.54C200.61,271,184.24,282,168.24,278.15a27.78,27.78,0,0,1-13.52-7.76,35.55,35.55,0,0,0,3.76,1.13c20.19,4.85,40.68-8.37,45.76-29.52a38.18,38.18,0,0,0,.76-4A34.67,34.67,0,0,1,204.8,253.54Z" transform="translate(-58.44 -31.89)"/><path class="cls-13" d="M314,255.5c-4.2,17.44-20.56,28.46-36.57,24.61a27.78,27.78,0,0,1-13.51-7.75,38.66,38.66,0,0,0,3.75,1.12c20.19,4.85,40.68-8.36,45.77-29.52.32-1.34.57-2.68.76-4A34.67,34.67,0,0,1,314,255.5Z" transform="translate(-58.44 -31.89)"/><path class="cls-7" d="M344.12,326.62s-36.6,56.52-88.78,25.64c-.53-.31-1.07-.62-1.62-.89-4.57-2.3-29.67-15.75-30.29-34.08-.52-15.31,1-17.94,1.81-19.35a29.76,29.76,0,0,1,2-2.95c2.88-3.24,10.54-11.34,26.35-8.76a20.5,20.5,0,0,1,12.57,7.4c7.57,9.37,24.19,28.88,33.82,32.3C312.71,330.46,336.71,330.05,344.12,326.62Z" transform="translate(-58.44 -31.89)"/><g class="cls-3"><path class="cls-5" d="M315.73,342.94a36.69,36.69,0,0,1-7.38,2.69,47.8,47.8,0,0,1-7.72,1.36,37.83,37.83,0,0,1-7.89,0,19.68,19.68,0,0,1-7.6-2.26,67.29,67.29,0,0,0,7.67-.1c2.51-.14,5-.39,7.54-.62l7.61-.68C310.51,343.12,313.08,342.94,315.73,342.94Z" transform="translate(-58.44 -31.89)"/></g><g class="cls-3"><path class="cls-5" d="M300.44,353.77a73.83,73.83,0,0,1-20,.33,72.83,72.83,0,0,1-19.55-4.85,53.82,53.82,0,0,1-17-10.93A43.64,43.64,0,0,1,233,321.54a57.67,57.67,0,0,0,12.44,15,55.82,55.82,0,0,0,7.9,5.59,63,63,0,0,0,8.68,4.29,80,80,0,0,0,9.21,3.15c3.12.91,6.32,1.57,9.54,2.17A130.71,130.71,0,0,0,300.44,353.77Z" transform="translate(-58.44 -31.89)"/></g><g class="cls-3"><path class="cls-5" d="M315.73,335.39a68.35,68.35,0,0,1-13.47,2.2c-2.28.18-4.56.2-6.85.21s-4.57-.19-6.86-.39a54.28,54.28,0,0,1-13.45-3,28.09,28.09,0,0,1-11.49-7.48,41.64,41.64,0,0,0,12.21,5.25,85.21,85.21,0,0,0,13.05,2.28c4.41.5,8.86.69,13.34.83S311.18,335.39,315.73,335.39Z" transform="translate(-58.44 -31.89)"/></g><g class="cls-3"><path class="cls-5" d="M290.36,325.38a90,90,0,0,1-12.57-6,78.84,78.84,0,0,1-11.56-7.95c-.87-.81-1.78-1.57-2.6-2.46-.41-.44-.84-.86-1.24-1.32s-.78-.95-1.15-1.45a22.22,22.22,0,0,0-2.05-2.5,10.24,10.24,0,0,0-1.17-1.11l-.6-.54-.66-.48a27.27,27.27,0,0,0-12.48-4.69,21.4,21.4,0,0,1,13.77,2.73,20.16,20.16,0,0,1,5.47,4.89,34.77,34.77,0,0,0,4.66,4.66q2.56,2.19,5.32,4.22c1.8,1.4,3.7,2.68,5.54,4C282.79,320,286.6,322.63,290.36,325.38Z" transform="translate(-58.44 -31.89)"/></g><path class="cls-7" d="M102.53,325.92s36.6,56.53,88.78,25.65q.8-.48,1.62-.9c4.57-2.3,29.67-15.75,30.29-34.08.52-15.31-1-17.94-1.81-19.35a32.31,32.31,0,0,0-2-2.95c-2.88-3.24-10.54-11.34-26.35-8.76a20.47,20.47,0,0,0-12.57,7.41c-7.57,9.36-24.19,28.88-33.82,32.29C133.94,329.76,109.94,329.35,102.53,325.92Z" transform="translate(-58.44 -31.89)"/><g class="cls-3"><path class="cls-5" d="M130.92,342.24c2.65,0,5.22.18,7.77.38l7.61.69c2.52.23,5,.48,7.54.61a65.06,65.06,0,0,0,7.67.1,19.51,19.51,0,0,1-7.6,2.26,37.16,37.16,0,0,1-7.89,0,47.78,47.78,0,0,1-7.72-1.35A36.73,36.73,0,0,1,130.92,342.24Z" transform="translate(-58.44 -31.89)"/></g><g class="cls-3"><path class="cls-5" d="M146.21,353.07a130.7,130.7,0,0,0,19.64-2c3.22-.61,6.42-1.27,9.54-2.18a81.85,81.85,0,0,0,9.21-3.14,64.26,64.26,0,0,0,8.68-4.3,55,55,0,0,0,7.9-5.59,57.46,57.46,0,0,0,12.44-15,43.53,43.53,0,0,1-10.87,16.77,53.47,53.47,0,0,1-17,10.93,75,75,0,0,1-9.63,3.11,76.61,76.61,0,0,1-9.92,1.75A73.83,73.83,0,0,1,146.21,353.07Z" transform="translate(-58.44 -31.89)"/></g><g class="cls-3"><path class="cls-5" d="M130.92,334.7c4.55,0,9.05,0,13.52-.14s8.93-.34,13.34-.83a84,84,0,0,0,13.05-2.29A41.64,41.64,0,0,0,183,326.19a27.89,27.89,0,0,1-11.49,7.48,53.84,53.84,0,0,1-13.45,3c-2.29.2-4.58.36-6.86.39s-4.57,0-6.85-.21A69.07,69.07,0,0,1,130.92,334.7Z" transform="translate(-58.44 -31.89)"/></g><g class="cls-3"><path class="cls-5" d="M156.29,324.69c3.76-2.76,7.57-5.35,11.32-8,1.84-1.36,3.74-2.64,5.54-4s3.61-2.75,5.32-4.22a34.2,34.2,0,0,0,4.66-4.66,20,20,0,0,1,5.47-4.88,21.41,21.41,0,0,1,13.77-2.74,27.27,27.27,0,0,0-12.48,4.69l-.66.48-.6.55a10.15,10.15,0,0,0-1.17,1.1,22.34,22.34,0,0,0-2.05,2.51c-.37.49-.77,1-1.15,1.45s-.83.88-1.24,1.32c-.82.89-1.73,1.65-2.6,2.46a79.63,79.63,0,0,1-11.56,7.95A92.35,92.35,0,0,1,156.29,324.69Z" transform="translate(-58.44 -31.89)"/></g><path class="cls-7" d="M327.48,482.14s-15.63,49.37-34,69.94a51.31,51.31,0,0,0-5.07,6.73c-7.27,11.33-10.81,25.23-12.52,35.65,0,0-2.3-.69-20.4-3.15S208.58,567,208.58,567s-37.85-27.15-42.38-54.72-15.63-32.09-15.63-32.09,4.11,15.22-21-37.44c-24.82-52.09,1.88-81.65,2.46-82.28l-1.17.81c26.11-21.72,88.27-14.67,88.27-14.67s34.83,4.12,68.29,4.12c11.79,0,20,2.08,25.7,4.77,7.64,3.6,10.75,8.32,11.87,10.6a24.4,24.4,0,0,0,1.33,2.4c1.73,2.69,6.35,11.56,12.95,37.09C347.79,438.53,327.48,482.14,327.48,482.14Z" transform="translate(-58.44 -31.89)"/><path class="cls-14" d="M275.88,594.46a119.59,119.59,0,0,0-1.61,15.22c-59.8,8.23-85.58-21.66-85.58-21.66s-28.25-28.26-33.19-53.22c-3.91-19.8-14.57-30.11-18.8-33.52a28.38,28.38,0,0,1-4.11-4.09c-22.81-27.81-27.82-54.83-28.91-66.44a35.49,35.49,0,0,1,.76-11.3c1.83-7.91,6.59-24.34,18.15-47.85a31.41,31.41,0,0,1,8.28-10.29l1.17-.81c-.58.63-27.28,30.19-2.46,82.28,25.1,52.66,21,37.44,21,37.44s11.1,4.53,15.63,32.09S208.58,567,208.58,567s28.8,21.81,46.9,24.28S275.88,594.46,275.88,594.46Z" transform="translate(-58.44 -31.89)"/><g class="cls-3"><path class="cls-5" d="M163,374.19a65.85,65.85,0,0,0-11.35,14,51.16,51.16,0,0,0-3.9,8,51.84,51.84,0,0,0-2.4,8.54,40.54,40.54,0,0,0-.78,8.88v1.13l.1,1.12c.08.75.11,1.5.23,2.25a39.58,39.58,0,0,0,.92,4.43,45,45,0,0,0,3.27,8.46c.75,1.32,1.43,2.67,2.27,3.94s1.63,2.53,2.55,3.77q5.38,7.42,10.65,14.91c3.52,5,7.09,9.94,10.46,15.08s6.59,10.5,8.61,16.48l.39,1.11c.12.38.21.76.31,1.14.18.77.4,1.52.56,2.29a38.71,38.71,0,0,1,.62,4.65,50.05,50.05,0,0,1-.26,9.25H185l-.16-2.29c0-.76-.06-1.52-.17-2.27-.17-1.51-.33-3-.64-4.48a43.29,43.29,0,0,0-1-4.37c-.22-.71-.48-1.41-.72-2.11l-.37-1.05-.45-1c-2.33-5.47-5.68-10.52-9.08-15.55s-6.8-10.13-10.13-15.26-6.58-10.33-9.68-15.61c-.8-1.29-1.5-2.7-2.27-4-.4-.67-.71-1.38-1-2.07l-1-2.07a66.64,66.64,0,0,1-3.29-8.63,49,49,0,0,1-2-9.08c-.08-.78-.21-1.55-.23-2.33l-.1-2.35a39.06,39.06,0,0,1,.3-4.71,40.37,40.37,0,0,1,6.8-17.41,47.77,47.77,0,0,1,5.94-7.2,40.6,40.6,0,0,1,7.19-5.83Z" transform="translate(-58.44 -31.89)"/></g><g class="cls-3"><path class="cls-5" d="M202.45,488.73a12.8,12.8,0,0,1,4.05,4.2,26.4,26.4,0,0,1,2.51,5.29,42.52,42.52,0,0,1,2.19,11.4,53.1,53.1,0,0,1,.06,5.78c-.12,1.9-.35,3.86-.52,5.69a29,29,0,0,0,.91,11.07,40.87,40.87,0,0,0,4.56,10.24,97.92,97.92,0,0,0,6.54,9.1,107.23,107.23,0,0,0,7.46,8.34c1.32,1.32,2.63,2.65,4,3.91s2.73,2.58,4.11,3.73l.16.13.1.14a39.51,39.51,0,0,0,3.88,4.26,41.39,41.39,0,0,0,4.49,3.76,32,32,0,0,0,5,3,29.33,29.33,0,0,0,5.58,2.07l0,.3a22.45,22.45,0,0,1-3-.36c-.5-.1-1-.19-1.51-.3l-1.49-.43a29.05,29.05,0,0,1-5.68-2.51,37.4,37.4,0,0,1-5.12-3.55,36,36,0,0,1-4.49-4.42l.26.27a82.34,82.34,0,0,1-15.8-16.77,69.75,69.75,0,0,1-9.87-20.69A47.15,47.15,0,0,1,208.84,521c-.08-2-.09-3.78-.1-5.67s-.06-3.72-.22-5.57a56.69,56.69,0,0,0-1.49-11,33.34,33.34,0,0,0-1.75-5.22,15.17,15.17,0,0,0-3-4.62Z" transform="translate(-58.44 -31.89)"/></g><g class="cls-3"><path class="cls-5" d="M233.18,473.22c.75,4,1.35,8.07,2,12.09l.91,6c.32,2,.59,4,.84,6,.48,4,.81,8.12,1.68,12.1a62.51,62.51,0,0,0,3.76,11.59c.79,1.87,1.7,3.68,2.59,5.49s1.82,3.57,2.85,5.27a40.92,40.92,0,0,0,7.28,9.17,20.28,20.28,0,0,0,10,5.25,26.93,26.93,0,0,0,11.78-.75l.11.28a22.26,22.26,0,0,1-12.2,2.81,19.16,19.16,0,0,1-6.33-1.64,23.19,23.19,0,0,1-5.47-3.56,35.52,35.52,0,0,1-7.61-10.17,56.19,56.19,0,0,1-4.51-11.6c-1.12-4-2.09-8-3.16-11.91s-2.34-7.89-3.2-11.92a86.59,86.59,0,0,1-1.6-12.22,78.09,78.09,0,0,1,0-12.33Z" transform="translate(-58.44 -31.89)"/></g><g class="cls-3"><path class="cls-5" d="M252.06,483.44a70.54,70.54,0,0,1,5.4-12,76.94,76.94,0,0,1,7.28-11c2.75-3.45,5.95-6.52,8.93-9.72,1.54-1.56,3-3.2,4.55-4.75l2.28-2.38,2.36-2.31c.78-.78,1.57-1.56,2.41-2.27s1.66-1.46,2.51-2.18l2.44-2.11c.79-.72,1.67-1.34,2.4-2.11a49.55,49.55,0,0,0,4.25-4.69,24.41,24.41,0,0,0,1.91-2.51c.57-.88,1.2-1.72,1.73-2.62a39.1,39.1,0,0,0,4.78-11.6c.17-1,.45-2.07.58-3.12s.29-2.11.34-3.18a33.27,33.27,0,0,0-.13-6.46l.29-.08c2.89,8.43,1.46,18.22-3.11,26.07a42.77,42.77,0,0,1-8.74,10.29,11.13,11.13,0,0,1-1.3,1.06l-1.33,1c-.89.66-1.8,1.37-2.68,2-1.73,1.28-3.6,2.39-5.28,3.77l-2.56,2c-.84.7-1.63,1.44-2.43,2.17a59,59,0,0,0-4.55,4.67,103.76,103.76,0,0,0-7.64,10.56c-1.24,1.77-2.41,3.59-3.67,5.34l-3.63,5.39c-2.41,3.61-4.72,7.28-7.12,11Z" transform="translate(-58.44 -31.89)"/></g><g class="cls-3"><path class="cls-5" d="M252.34,359.24c.93,3,1.74,6,2.61,8.95.2.75.44,1.48.67,2.21s.42,1.48.67,2.2c.46,1.46.93,2.91,1.36,4.38a38.06,38.06,0,0,0,3.32,8.56,14.73,14.73,0,0,0,1.27,1.91c.5.59,1,1.19,1.49,1.75s1.14,1,1.72,1.49a22.75,22.75,0,0,1,1.85,1.6,17.77,17.77,0,0,1,3,3.91,26.93,26.93,0,0,1,2,4.48,41.43,41.43,0,0,1,2,9.41,58.08,58.08,0,0,1,0,9.51,51,51,0,0,1-1.51,9.34l-.29,0c-.37-6.27-.65-12.43-1.41-18.48-.18-1.52-.4-3-.62-4.51s-.54-3-.9-4.42a26.22,26.22,0,0,0-3.49-8.14,15.18,15.18,0,0,0-1.44-1.71c-.54-.6-1.09-1.19-1.64-1.77L261.52,388c-.5-.62-.9-1.31-1.37-1.94a53.71,53.71,0,0,1-4.84-8.22,30,30,0,0,1-1.57-4.5,43.05,43.05,0,0,1-1.05-4.63,40.43,40.43,0,0,1-.65-9.45Z" transform="translate(-58.44 -31.89)"/></g><g class="cls-3"><path class="cls-5" d="M220.93,374.12c-.27,2.92-.5,5.78-.69,8.64l-.44,8.57c-.12,1.43-.28,2.87-.34,4.31a30,30,0,0,0,0,4.34,39,39,0,0,0,.54,4.31c.29,1.42.67,2.82,1,4.21,1.83,5.5,3.44,11,5.71,16.25l.73,2c.25.67.56,1.31.82,2,.55,1.33,1.09,2.66,1.6,4,1.08,2.68,2.34,5.28,3.3,8.09l-.26.15c-.94-1.13-1.82-2.3-2.68-3.5-.44-.6-.87-1.2-1.28-1.81a15.84,15.84,0,0,1-1.19-1.86c-.74-1.28-1.44-2.57-2.14-3.88-.35-.65-.71-1.3-1-2l-.85-2c-.56-1.37-1.09-2.75-1.58-4.14s-.8-2.85-1.19-4.28c-.18-.71-.39-1.42-.56-2.14s-.29-1.45-.4-2.18c-.24-1.46-.48-2.91-.62-4.38s-.24-2.94-.44-4.38-.26-2.92-.49-4.36-.4-2.9-.65-4.36c-.11-.73-.25-1.46-.33-2.2s-.13-1.47-.18-2.21-.1-1.48-.06-2.22.07-1.48.13-2.21a40.91,40.91,0,0,1,.57-4.41,31.21,31.21,0,0,1,2.7-8.45Z" transform="translate(-58.44 -31.89)"/></g><g class="cls-3"><path class="cls-5" d="M195.7,366.69a74.33,74.33,0,0,1-2.2,13.87,55.8,55.8,0,0,1-2.18,6.75,20,20,0,0,1-3.75,6.34,4.8,4.8,0,0,1-.73.69,6.82,6.82,0,0,1-.85.61l-.22.13-.07,0c-.06,0-.08.07-.13.09a1.06,1.06,0,0,0-.21.36,6,6,0,0,0,.15,2.93,34.16,34.16,0,0,0,2.39,6.42c2,4.18,4.41,8.16,6.8,12.16a90.61,90.61,0,0,1,6.47,12.5c1.77,4.37,3.32,9,3.26,14.06a17.44,17.44,0,0,1-.51,3.78l-.79,3.3c-.16,1.1-.43,2.2-.51,3.31l-.16,1.66c0,.55,0,1.1,0,1.66a19.72,19.72,0,0,0,1,6.51,12.31,12.31,0,0,0,3.67,5.53l-.14.26a9.37,9.37,0,0,1-2.85-2.19,13.5,13.5,0,0,1-2.08-3,19,19,0,0,1-2-7,30.31,30.31,0,0,1,.2-7.25c.19-1.17.44-2.4.66-3.51a15.38,15.38,0,0,0,.3-3.13,28.59,28.59,0,0,0-.79-6.5,57.15,57.15,0,0,0-1.92-6.49c-1.57-4.28-3.4-8.52-5.28-12.76s-4-8.37-6.21-12.49a64.61,64.61,0,0,1-3.1-6.36,12.19,12.19,0,0,1-.55-1.8,5.28,5.28,0,0,1-.08-2.12,3.1,3.1,0,0,1,.5-1.22,3,3,0,0,1,.49-.51l.28-.22.14-.12a3.59,3.59,0,0,0,.51-.46,6.68,6.68,0,0,0,.5-.55,26.17,26.17,0,0,0,3.14-5.7c.9-2.07,1.66-4.23,2.41-6.4,1.47-4.35,2.75-8.8,4.13-13.25Z" transform="translate(-58.44 -31.89)"/></g><path class="cls-10" d="M327.48,482.14s-15.63,49.37-34,69.94a51.31,51.31,0,0,0-5.07,6.73c-5.74-38.87,8.22-56.58,8.22-56.58s9.05-16,19.11-36,9.69-41.35,9.28-68.71c-.25-16.51-6.76-32.17-11.88-42,7.64,3.6,10.75,8.32,11.87,10.6a24.4,24.4,0,0,0,1.33,2.4c1.73,2.69,6.35,11.56,12.95,37.09C347.79,438.53,327.48,482.14,327.48,482.14Z" transform="translate(-58.44 -31.89)"/></g><g id="Layer_5" data-name="Layer 5"><path class="cls-15" d="M570.09,423l-69-4.25L509,456.4a.63.63,0,0,1-1.12.52l-30.58-39.59-.64,0-72.2-4.45a5.33,5.33,0,0,1-4.91-6.26l14-77.62a5.32,5.32,0,0,1,5.42-4.37l140.65,4.63a5.32,5.32,0,0,1,5.1,4.63L575.69,417A5.31,5.31,0,0,1,570.09,423Z" transform="translate(-58.44 -31.89)"/><path class="cls-7" d="M420.68,384l4-7.21c2.26,3.68,4.71,6.09,7.85,6.27,2.47.15,4.06-1.47,4.22-4.26v-.14c.15-2.66-.71-4.08-5.17-6.39-5.38-2.78-8.79-5.65-8.23-15.12v-.13c.51-8.66,4.85-14.14,10.45-13.81,4,.23,7.28,2.61,9.83,6.66l-3.6,7.72c-2.25-3.07-4.54-5-6.85-5.12s-3.64,1.63-3.77,3.95v.13c-.19,3.14.93,4.23,5.55,6.62,5.41,2.85,8.34,6.51,7.85,14.82v.14c-.56,9.47-5,14.54-10.95,14.19C427.72,392.1,423.67,389.34,420.68,384Z" transform="translate(-58.44 -31.89)"/><path class="cls-7" d="M458.89,345.05l5.56.33,8.93,48.73-6.31-.37-1.88-10.85-11.6-.68-3.14,10.55-6.15-.36Zm4.69,28.45-2.73-15.68-4.56,15.25Z" transform="translate(-58.44 -31.89)"/><path class="cls-7" d="M480.43,346.66,486,347l11.13,30.12,1.73-29.36,5.95.35L502,395.79l-5.14-.3-11.5-31.1-1.78,30.32-6-.35Z" transform="translate(-58.44 -31.89)"/><path class="cls-7" d="M517.21,358.54l-8.35-.49.57-9.68,22.73,1.34-.57,9.67-8.35-.49-2.23,38-6-.35Z" transform="translate(-58.44 -31.89)"/><path class="cls-7" d="M542.69,350l5.56.32L557.18,399l-6.31-.37L549,387.83l-11.6-.69-3.13,10.55-6.16-.36Zm4.69,28.44-2.73-15.68L540.1,378Z" transform="translate(-58.44 -31.89)"/><path class="cls-7" d="M374.57,306.91c1.45-.83,2.44-.78,3,.13.39.68,0,1.56-1.11,2.65-1.91,1.9-2.35,3.66-1.38,5.26a4.18,4.18,0,0,0,3.77,1.93,10.35,10.35,0,0,0,4.78-1.33,19,19,0,0,0,7.81-6.93,5.21,5.21,0,0,0,.47-5.24,5.81,5.81,0,0,0-2.09-2.39,27.93,27.93,0,0,0-4-1.95c-2.65-1.11-5-2.12-7-3.06a9.9,9.9,0,0,1-4.71-4c-2.16-3.93-1.58-9.16,2.16-15.82A46.77,46.77,0,0,1,384,266.2a30.31,30.31,0,0,1,8.23-5.93,9.85,9.85,0,0,1,5.19-1.12,4,4,0,0,1,3.76,2.59c.9,2.42.16,5.77-2,10a50.34,50.34,0,0,1-8,11.14,16.93,16.93,0,0,1-4,3.36,3.06,3.06,0,0,1-2.08.26,1.34,1.34,0,0,1-1-.69c-.4-.81.23-2,1.92-3.48a44,44,0,0,0,7.71-8.81c2.64-4,3.72-7,3-8.74a1.89,1.89,0,0,0-1.79-1.16,4.7,4.7,0,0,0-2.31.5,25.72,25.72,0,0,0-7.23,5.82,29.66,29.66,0,0,0-7,11.37c-1,3.24-.93,5.83.1,7.8a8.88,8.88,0,0,0,3.89,3.62c1.49.78,3.33,1.6,5.46,2.51a44.45,44.45,0,0,1,5.32,2.69,8.84,8.84,0,0,1,3.59,3.71c1.24,2.66.49,5.82-2.1,9.4a23.7,23.7,0,0,1-8.89,7.26c-3.68,1.84-7,2.57-10,2.17a6.46,6.46,0,0,1-4.93-2.69,5.91,5.91,0,0,1-.46-5.62,10.78,10.78,0,0,1,2.3-3.56A9.26,9.26,0,0,1,374.57,306.91Z" transform="translate(-58.44 -31.89)"/><path class="cls-7" d="M405.29,300l.27.63a2.28,2.28,0,0,0,1,1.15,4.5,4.5,0,0,0,3.9,0c3.42-1.26,6.48-4.9,9.55-11.21.56-1.09,1.13-1.74,1.7-1.92a1.21,1.21,0,0,1,1,.14,1,1,0,0,1,.44.48c.31,1-.55,3.08-2.45,6.24a33.51,33.51,0,0,1-5.08,6.56,16.37,16.37,0,0,1-5.79,3.93,7.18,7.18,0,0,1-5.54,0,5.33,5.33,0,0,1-2.67-2.89c-1.72-3.86-1.23-8.59,1.77-14.29,2.43-4.63,5.17-7.57,8-8.64a3.89,3.89,0,0,1,2.3-.19,2.4,2.4,0,0,1,1.85,1.62c.45,1.31.28,3.18-.47,5.57C413.57,292.2,410.29,296.36,405.29,300Zm-.22-3.1a20.69,20.69,0,0,0,3.86-3.73A19.56,19.56,0,0,0,412,287a2.93,2.93,0,0,0,.08-1.81c-.18-.49-.54-.63-1.1-.42a7.12,7.12,0,0,0-2.69,2.65A19,19,0,0,0,405.07,296.91Z" transform="translate(-58.44 -31.89)"/><path class="cls-7" d="M436.93,271.81c2.41-.64,3.88.18,4.39,2.42a9.59,9.59,0,0,1-1.18,6.53c-.93,1.81-1.89,2.83-2.85,3.07a1.15,1.15,0,0,1-1.56-.95,1.56,1.56,0,0,1,.08-1.16c.06-.13.35-.53.83-1.19a9.07,9.07,0,0,0,1.15-2.45,3.24,3.24,0,0,0,.22-1.62c-.11-.43-.43-.58-1-.43a6.29,6.29,0,0,0-2.55,2.07,23.6,23.6,0,0,0-4.24,8.15c-1.17,3.6-1.42,6.27-.9,8a2.42,2.42,0,0,0,1,1.35,2.78,2.78,0,0,0,2.44.43c1.76-.45,3.57-2,5.47-4.61a44.85,44.85,0,0,0,4-6.58c.53-1.16,1.08-1.81,1.63-1.94a1.35,1.35,0,0,1,1.51,1c.22,1-.76,3.25-2.79,6.7-3.25,5.43-6.4,8.47-9.79,9.33a6.19,6.19,0,0,1-5.3-.77,5.86,5.86,0,0,1-2.28-3.14c-.84-2.62-.63-6,.82-10.26A30.51,30.51,0,0,1,432.28,275,10.38,10.38,0,0,1,436.93,271.81Z" transform="translate(-58.44 -31.89)"/><path class="cls-7" d="M456.6,280a70.42,70.42,0,0,1,9-10.3,40.77,40.77,0,0,1,4.22-3.52,5.21,5.21,0,0,1,1.48-.85,1.85,1.85,0,0,1,1.52.79,1.62,1.62,0,0,1,.52.92c.05.52-.48,1.3-1.55,2.34-2.91,2.73-4.22,4.69-4.08,5.87.09.66.52.94,1.31.85,1.29-.16,3.4-1.43,6.42-3.83a2.86,2.86,0,0,1,1.33-.66,1.07,1.07,0,0,1,.77.29,1.19,1.19,0,0,1,.49.8c.07.89-1.13,2.35-3.46,4.4a13.44,13.44,0,0,1-7.16,3.66,5.31,5.31,0,0,1-2.73-.4,2.35,2.35,0,0,1-1.33-2,4.52,4.52,0,0,1,.6-2.57,38.44,38.44,0,0,0-7,9.37,48.91,48.91,0,0,0-3.69,9.45c-.4,1.38-1.06,2.13-2,2.29a1.41,1.41,0,0,1-1.86-1.16c-.19-.92.07-3.53.92-7.89a50,50,0,0,1,5.38-15.64c1.42-2.42,2.76-3.74,4-4a1.85,1.85,0,0,1,1.16.16,1.25,1.25,0,0,1,.76,1,3.41,3.41,0,0,1-.66,1.94c-.1.16-.8,1.25-2,3.23A20.64,20.64,0,0,0,456.6,280Z" transform="translate(-58.44 -31.89)"/><path class="cls-7" d="M480.52,283.32c0,.32,0,.48.07.8a3,3,0,0,0,.61,1.66,4.14,4.14,0,0,0,3.69,1.5c3.63-.11,7.62-3,12.49-8.89.85-1,1.59-1.52,2.2-1.51a1.2,1.2,0,0,1,.91.52,1.21,1.21,0,0,1,.27.7c0,1.2-1.47,3.2-4.24,6a33.6,33.6,0,0,1-6.83,5.41,14.1,14.1,0,0,1-6.67,2.2,6.57,6.57,0,0,1-5.25-2.07,7,7,0,0,1-1.66-4.23c-.48-4.94,1.38-10,6-15.18,3.72-4.2,7.23-6.43,10.27-6.55a3.53,3.53,0,0,1,2.26.65,3,3,0,0,1,1.27,2.48c0,1.62-.71,3.62-2.15,6A24.68,24.68,0,0,1,480.52,283.32Zm.72-3.52a19,19,0,0,0,4.79-2.68,21.21,21.21,0,0,0,4.83-5.71,3.87,3.87,0,0,0,.63-2,.8.8,0,0,0-.92-.88c-.81,0-1.94.68-3.37,1.93A21.45,21.45,0,0,0,481.24,279.8Z" transform="translate(-58.44 -31.89)"/><path class="cls-7" d="M519.64,262.57A66.48,66.48,0,0,0,513.36,273c-2.68,5.46-4,9.55-4.07,12.31a3,3,0,0,0,.4,1.81,1.66,1.66,0,0,0,1.35.71c1.45.12,3.27-1.2,5.55-4,1.44-1.71,2.77-3.44,4-5.18.65-1,1.32-1.46,2-1.4a1.4,1.4,0,0,1,1.25,1.44c-.1,1.18-1.83,3.66-4.95,7.42-3.75,4.53-6.85,6.65-9.58,6.43a4.59,4.59,0,0,1-3.59-2.46,7.43,7.43,0,0,1-.84-4,32.64,32.64,0,0,1,3.45-13c.56-1.23,2.08-4.19,4.74-8.9a9,9,0,0,1-2,.26,3.24,3.24,0,0,1-1.74-.52,1.9,1.9,0,0,1-1-1.66,2.13,2.13,0,0,1,1.45-1.85,26.51,26.51,0,0,1,3.61-.52,27.12,27.12,0,0,0,3.44-.77,71,71,0,0,1,6.17-7.86,47.08,47.08,0,0,1,3.38-3.57,3.46,3.46,0,0,1,2.25-1.07,1.82,1.82,0,0,1,1.25.77,1.76,1.76,0,0,1,.49,1.29c-.08.84-1.2,2.42-3.29,4.76a41,41,0,0,0-3,3.69,32,32,0,0,1,8-.81c1.81.17,2.63,1,2.45,2.5a1.82,1.82,0,0,1-1.12,1.55,6.23,6.23,0,0,1-2.58.22,47.51,47.51,0,0,0-7.48,1.2C522,262,520.82,262.26,519.64,262.57Z" transform="translate(-58.44 -31.89)"/></g></svg>