<?xml version="1.0" encoding="utf-8"?>
<!-- Generator: Adobe Illustrator 25.0.1, SVG Export Plug-In . SVG Version: 6.00 Build 0)  -->
<svg version="1.1" id="Layer_1" xmlns="http://www.w3.org/2000/svg" xmlns:xlink="http://www.w3.org/1999/xlink" x="0px" y="0px"
	 viewBox="0 0 452.98 474.99" style="enable-background:new 0 0 452.98 474.99;" xml:space="preserve">
<style type="text/css">
	.st0{fill:#FFFFFF;stroke:#00A395;stroke-width:0.75;stroke-miterlimit:10;}
	.st1{fill:#00A395;stroke:#00A395;stroke-width:0.75;stroke-miterlimit:10;}
	.st2{fill:#C7202E;}
</style>
<g>
	<path class="st0" d="M40.99,432.18c3.52-2.39,6.99-2.31,11.09-0.97c37.76,12.27,74.56,9.68,110.86-6.46
		c12.51-5.57,26.02-8.92,39.1-13.18c2.98-0.97,3.05-0.78,3.08-4.89c-6.63-1.73-13.16-2.27-19.97-0.04
		c-8.41,2.76-17.12,5.01-25.97,2.69c-4.54-1.19-9.07-3.22-13.01-5.78c-7.17-4.66-14.57-7.86-23.37-7.48
		c-1.86,3.25,0.23,3.82,2.56,4.74c4.31,1.7,6.65,5.19,6.31,9.76c-0.31,4.25-2.63,7.39-7,8.79c-4.42,1.41-7.9,0-10.66-3.32
		c-4.27-5.14-2.25-12.16,4.1-15.39c1.31-0.67,2.26-2.05,3.37-3.1c-0.4-0.67-0.79-1.35-1.19-2.02c-3.97,1.28-7.89,2.81-11.94,3.79
		c-4.93,1.19-9.95,2.44-14.97,2.67c-4.11,0.19-7.67-2-9.44-6.18c-1.31-3.09-1-5.41,1.91-7.81c14.48-11.96,26.47-26.13,36.43-42.02
		c-0.44-0.39-0.63-0.72-0.88-0.77c-3.38-0.65-7.35-0.57-8.51-4.76c-1.18-4.27,1.34-7.39,4.33-9.92c11.35-9.6,20.2-21.06,26.41-34.54
		c-2.96-0.94-5.92-1.46-8.46-2.78c-5.54-2.87-5.96-7.24-1.29-11.36c10.78-9.52,18.62-21.05,24.2-34.31
		c-2.56-1.04-5.04-1.64-7.04-2.96c-4.12-2.73-4.47-7.44-1.11-11.31c9.97-11.47,18.31-24.01,25.08-37.62
		c-8.1-4.61-8.72-7.91-2.89-15.28c6.61-8.36,13.75-16.34,19.84-25.06c6.71-9.62,12.49-19.89,18.97-30.34
		c-8.09-1.43-9.08-2.92-7.14-9.58c1.34-4.62,2.89-9.19,4.52-13.72c1.6-4.45,0.63-8.14-2.77-11.31c-3.89-3.64-7.97-7.11-11.54-11.04
		c-1.37-1.51-2.75-4.73-2.03-6c0.96-1.69,3.88-2.91,6.07-3.11c4.79-0.43,9.65-0.18,14.48-0.05c5.42,0.15,9.2-2.01,11.37-7.12
		c1.95-4.58,3.96-9.18,6.44-13.48c1.04-1.81,3.56-4.22,5.03-3.98c1.91,0.31,4.08,2.69,4.98,4.7c1.82,4.07,2.84,8.49,4.23,12.75
		c2.6,7.97,4.47,9.35,12.76,10.18c4.62,0.46,9.31,0.88,13.8,1.99c5.42,1.34,6.32,4.89,2.13,8.57c-3.98,3.5-8.44,6.48-12.84,9.48
		c-4.72,3.21-6.32,7.28-4.95,12.91c1.21,4.99,1.98,10.11,2.64,15.21c0.42,3.22-0.34,6.08-6.31,6.26
		c8.13,11.56,15.5,22.15,23.02,32.65c1.83,2.56,4.1,4.82,6.23,7.16c4.98,5.47,6.26,12.6,2.43,18.8c-1.78,2.87-1.15,4.66,0.11,7.17
		c7.79,15.51,18.24,28.98,30.82,40.87c2.47,2.33,6.53,4.92,4.16,8.55c-1.55,2.38-5.76,3.03-8.81,4.4c-0.57,0.26-1.27,0.25-2.18,0.41
		c3.11,12.63,9.43,23.11,18.86,31.73c2.83,2.58,5.97,4.82,8.73,7.47c1.2,1.15,2.83,3.67,2.4,4.31c-0.97,1.44-3.02,2.32-4.8,2.97
		c-1.35,0.5-2.95,0.29-5.04,0.44c4.6,10.86,10.2,20.76,17.71,29.47c3.68,4.27,7.9,8.1,12.01,11.99c2.91,2.75,5.72,5.8,4.14,9.92
		c-1.62,4.24-5.91,4.3-9.83,4.24c-1.79-0.03-3.57-0.17-6.41,0.84c8.34,9.38,16.71,18.74,25.01,28.15c2.63,2.98,5.67,5.81,7.43,9.27
		c1.25,2.46,1.94,6.92,0.57,8.56c-1.88,2.26-6.06,3.94-9.05,3.67c-5.54-0.51-10.9-2.73-16.39-4.04c-5.08-1.21-10.23-2.14-15.36-3.2
		c-0.27,0.73-0.53,1.45-0.8,2.18c1.22,0.61,2.4,1.32,3.67,1.81c4.54,1.74,7.63,4.82,8.46,9.65c0.78,4.57-0.61,8.62-4.28,11.6
		c-4,3.25-8.53,3.64-13.12,1.52c-4.49-2.06-6.77-5.8-6.83-10.74c-0.06-5.14,2.25-8.93,6.87-11.26c1.55-0.78,3.12-1.53,4.68-2.3
		c-0.26-0.61-0.52-1.22-0.77-1.83c-3.04,1.18-6.19,2.15-9.11,3.6c-5.5,2.74-10.82,5.84-16.29,8.63c-6.26,3.2-12.82,2.87-19.48,1.39
		c-6.64-1.48-13.27-3.37-20-3.96c-4.64-0.41-9.48,0.9-14.14,1.89c-1,0.21-2.16,2.3-2.22,3.57c-0.06,1.31,0.82,3.53,1.82,3.89
		c14.35,5.19,28.49,11.49,43.29,14.75c14.32,3.15,29.32,3.96,44.06,4.28c21.47,0.47,42.97-0.42,64.46-0.72
		c0.64-0.01,1.28,0.09,2.04,1.01c-3.66,0.54-7.31,1.37-11,1.57c-30.75,1.73-61.62,4.99-92.24-0.03
		c-15.62-2.56-30.77-8.01-46.12-12.2c-1.72-0.47-3.35-1.23-5.36-1.99c0,2.46,0,4.4,0,6.07c6.3,1.42,12.33,2.78,18.36,4.13
		c-0.09,0.43-0.18,0.86-0.28,1.29c-3.88-0.66-7.8-2.09-11.62-1.83c-8.4,0.57-16.78,1.74-25.09,3.13
		c-9.17,1.53-18.22,3.74-27.37,5.32c-3.13,0.54-6.43,0.09-9.65,0.09c-0.07-0.74-0.15-1.48-0.22-2.22c1.78-0.27,3.55-0.7,5.33-0.78
		c6.86-0.31,13.73-0.51,20.57-1.64c-17.13-8.15-34.65-8.15-52.48-3.39c7.4-4.36,15.49-5.67,23.82-6.18
		c6.76-0.41,6.76-0.52,7.55-8.59c-3.01,0.52-5.95,0.67-8.64,1.57c-14.48,4.83-29.35,8.84-43.23,15.05
		c-21.47,9.6-43.72,12.56-66.74,11c-11.92-0.81-23.77-2.82-35.61-4.57c-3.04-0.45-5.93-1.97-8.89-2.99
		C40.99,434.18,40.99,433.18,40.99,432.18z M147.8,336.14c-5.29,2.47-10.04,4.45-14.54,6.9c-2.61,1.42-5.15,3.29-7.11,5.49
		c-10.04,11.29-19.92,22.71-29.73,34.2c-1.45,1.7-3.61,4.72-3.01,5.86c1.22,2.32,3.99,5.12,6.3,5.3c4.46,0.34,9.53,0.02,13.5-1.83
		c14.08-6.58,26.69-4.23,38.97,4.32c3.05,2.13,6.64,3.77,10.22,4.82c7.82,2.29,15.6,0.74,23.01-1.92
		c7.58-2.72,14.98-2.43,22.52-0.37c4.65,1.27,9.25,2.73,13.94,3.8c7.33,1.68,14.88,3.41,21.94-0.44
		c13.54-7.39,27.37-8.34,41.82-3.19c9.66,3.44,18.65,1.51,27.11-3.88c2.24-1.43,4.6-2.68,6.83-4.13c7.62-4.94,15.72-5.91,24.33-3.19
		c3.48,1.1,6.94,2.3,10.48,3.21c3.36,0.86,6.81,1.93,10.22,1.94c5.55,0.02,7.84-3.96,5.08-8.73c-1.81-3.12-4.38-5.83-6.77-8.58
		c-5.34-6.15-11.56-11.71-16.01-18.43c-6.72-10.15-16.24-15.42-27.34-18.55c-3.25-0.92-6.9-0.87-10.32-0.61
		c-1.81,0.14-3.51,1.68-5.26,2.59c1.43,0.85,2.79,1.88,4.31,2.52c5.95,2.5,9.16,9.17,7.17,15.19c-1.9,5.76-8.06,9.58-13.65,8.47
		c-6.71-1.35-11.08-7.18-10.04-13.83c0.36-2.29,1.42-4.48,2.29-7.08c-1.06,0.76-1.86,1.32-2.64,1.9
		c-8.49,6.27-16.95,7.02-26.39,1.37c-7.95-4.76-16.56-8.44-24.99-12.35c-6.84-3.18-13.65-2.2-20.13,1.28
		c-1.15,0.62-1.88,2.01-2.8,3.05c1,0.87,1.88,1.99,3.03,2.55c4.91,2.4,7.51,6.68,6.53,11.11c-1.05,4.74-5.36,8.28-9.99,8.22
		c-4.28-0.06-8.47-3.36-9.53-7.51c-1.22-4.79,1.15-9.21,6.18-11.7c1.04-0.51,1.92-1.34,2.87-2.02c-0.27-0.41-0.54-0.81-0.81-1.22
		c-2.38,1.36-4.83,2.61-7.13,4.09c-7.6,4.87-15.09,4.4-22.46-0.39c-3.77-2.44-7.45-5.02-11.09-7.64
		c-6.29-4.51-13.01-5.13-20.39-3.13c-4.62,1.25-6.53,3.39-4.77,8.05c8.62,2.34,12.08,6.48,11.54,13.76
		c-0.42,5.75-4.85,10.33-10.5,10.88c-6.43,0.63-11.9-2.9-13.45-8.69c-1.88-7.03,1.33-11.91,10.89-16.39
		C147.96,339.8,147.89,338.32,147.8,336.14z M164.8,287.61c-7.35,1.98-14.11,3.28-17.72,11.3c-5.25,11.64-13.38,21.39-23.04,29.8
		c-1.12,0.98-2.29,1.99-3.1,3.2c-2.45,3.66-1.36,6.49,2.98,6.34c4.87-0.17,9.87-1.09,14.49-2.64c5.48-1.84,10.5-5.03,15.93-7.04
		c8.8-3.27,17.28-2.64,25,3.34c3.02,2.34,6.21,4.47,9.41,6.56c6.09,3.99,12.53,5.01,18.58,0.38c15.2-11.65,30.64-12.14,46.61-1.82
		c0.69,0.45,1.53,0.65,2.25,1.05c19.36,10.69,18.02,13.66,39.71-2.15c5.25-3.82,11.25-5.49,17.47-3.78
		c6.19,1.71,12.05,4.58,18.14,6.68c5.13,1.77,10.32,3.52,15.63,4.53c2.05,0.39,4.49-1.26,6.76-1.98c-1.05-2.28-1.5-5.26-3.24-6.74
		c-12.65-10.86-21.51-24.37-28.51-39.28c-2.14-4.55-7.69-7.79-12.91-7.48c-5.44,0.32-6.91,4.46-8.24,8.7
		c-0.2,0.63-0.32,1.29-0.54,1.91c-2.05,5.7-5.38,7.88-11.15,6.1c-7.43-2.29-14.69-5.15-21.9-8.09c-5.61-2.28-11.01-5.06-16.51-7.61
		c-0.35,0.53-0.69,1.07-1.04,1.6c1.14,0.83,2.18,1.86,3.42,2.45c5.08,2.42,7.56,6.95,6.21,11.63c-1.29,4.5-5.52,7.71-9.98,7.56
		c-4.27-0.14-8.43-3.54-9.4-7.68c-1.04-4.44,1.21-8.83,5.46-11.29c1.33-0.77,2.28-2.22,3.4-3.35c-1.4-0.88-2.76-2.45-4.21-2.53
		c-5.58-0.32-11.26-0.7-16.77-0.02c-3.64,0.45-7.04,2.73-10.58,4.13c-9.17,3.66-17.85,0.95-26.72-1.66
		c-6.13-1.8-12.58-2.68-18.95-3.4c-4.14-0.47-6.79,1.39-5.2,6.21c6.67,2.31,9.9,6.24,9.3,11.25c-0.57,4.77-4.59,8.59-9.37,8.9
		c-4.65,0.3-9.33-3.17-10.37-7.69c-1.21-5.29,1.68-9.5,8.88-12.69C164.96,290.95,164.89,289.5,164.8,287.61z M207.39,243.5
		c-0.15,2.49-0.15,2.49,3.19,4.03c4.61,2.12,6.96,7.3,5.44,12.01c-1.57,4.88-6.09,7.55-11.35,6.7c-4.68-0.75-7.91-4.94-7.83-10.03
		c0.1-5.89,4.2-8.21,9.63-10.17c-0.78-1.89-0.98-4.35-2.24-5.15c-9.89-6.25-18.19-8.89-29.47-0.74c-2.79,2.02-6.04,3.39-8.88,5.35
		c-1.78,1.22-3.81,2.68-4.69,4.53c-5.69,11.84-12.85,22.56-22.96,31.07c-3.42,2.88-2.42,5.17,0.58,7.12
		c3.87,2.53,7.97,2.89,12.26,0.61c13.88-7.37,28-9.6,43.1-3.12c7.21,3.09,15.37,4.63,22.78,0.64c12.63-6.8,24.84-5.57,37.31,0.09
		c9.06,4.11,18.15,8.24,27.46,11.74c7.89,2.97,11.44,2.34,13.69-7c1.71-7.09,7.4-9.49,14.42-6.97c3.11,1.12,6,2.86,9.08,4.09
		c3.56,1.42,7.16,1.91,10.64-0.44c-0.36-0.75-0.44-1.09-0.65-1.33c-0.44-0.49-0.91-0.98-1.44-1.37
		c-12.4-9.16-21.52-20.69-26.01-35.62c-0.27-0.9-0.83-2.11-1.55-2.4c-5.43-2.13-10.93-4.07-16.72-6.18c0,2.6,0,4.37,0,6.04
		c8.68,3.08,12.54,7.81,11.71,14.13c-0.76,5.76-5.53,10.38-11.33,10.95c-5.4,0.54-10.87-3.21-12.61-8.62
		c-2.28-7.1,0.1-10.91,10.53-16.86c-0.22-6.29-0.79-7.22-6.87-5.92c-5.91,1.27-12.22,2.75-17.18,5.96
		c-8.5,5.49-17.28,7.03-26.64,4.65C222.79,249.24,215.1,246.11,207.39,243.5z M185.14,194.94c-3.62-0.7-6.1-0.6-8.32,2.96
		c-6.84,10.97-14.29,21.56-21.36,32.39c-1.15,1.77-2.81,4.69-2.13,5.85c1.24,2.13,4.16,4.8,6.19,4.65
		c4.61-0.34,10.09-1.03,13.47-3.76c10.33-8.32,20.2-8.22,31.28-1.82c6.56,3.79,13.68,6.82,20.87,9.25
		c8.57,2.89,17.4,3.29,25.41-2.14c11.53-7.83,23.3-8.91,36.36-3.44c5.36,2.24,11.95,2.3,17.94,2.07c4.93-0.19,5.83-3.64,2.25-7.01
		c-11.96-11.28-22.21-23.83-29.86-38.45c-0.54-1.03-2.35-2.29-3.25-2.08c-5.97,1.41-10.67-0.83-15.27-4.26
		c-2.51-1.87-5.46-3.15-9.3-1.2c8.52,4.26,10.84,7.29,9.95,12.61c-0.82,4.89-3.95,7.75-8.65,8.37c-4.32,0.57-8.02-1.34-9.78-5.41
		c-3.49-8.09,1.17-12.51,8.19-16.11c-4.67,0-8.84,0.46-12.78,1.69c-6.54,2.04-12.2,1.17-17.89-2.79c-9.14-6.37-26.86-1.25-32.3,8.97
		c7.74,3.89,10.24,7.12,9.43,12.16c-0.74,4.58-4.59,8.43-9.09,8.62c-4.59,0.19-8.29-1.9-9.86-6.22
		C173.79,202,178.51,197.92,185.14,194.94z M280.78,174.54c-1.51-2.63-2.57-5.68-4.6-7.83c-10.44-11.08-19.68-23.04-26.6-36.61
		c-2.68-5.25-6.3-9.2-10.97-12.54c-8-5.72-19.08-2.66-22.97,6.48c-5.16,12.13-11.05,23.8-19.94,33.75
		c-5.98,6.7-11.81,13.56-17.34,20.64c-1.43,1.84-2.7,5.49-1.82,7c0.96,1.65,4.77,2.84,6.9,2.34c4.73-1.11,9.65-2.69,13.65-5.34
		c8.76-5.8,16.2-6.57,25.03-0.98c4.09,2.59,8.11,3.15,12.79,1.74c9.09-2.73,17.77-3.75,26.66,2.17
		C269.3,190.5,279.81,184.01,280.78,174.54z M252.27,426.78c-0.35-6.38-0.68-12.45-1.07-19.56c-14.72,9.2-28.77,4.04-42.99,0.1
		c-1,5.69-1.93,10.99-2.83,16.13c4.86,1.08,10.08,0.98,13.76,3.31c9.8,6.18,19.3,4.41,29.12,0.99
		C249.35,427.37,250.5,427.2,252.27,426.78z"/>
	<path class="st1" d="M147.8,336.14c0.1,2.18,0.17,3.66,0.23,5.09c-9.56,4.49-12.77,9.36-10.89,16.39
		c1.55,5.78,7.02,9.31,13.45,8.69c5.66-0.55,10.08-5.13,10.5-10.88c0.54-7.28-2.93-11.42-11.54-13.76c-1.75-4.66,0.15-6.8,4.77-8.05
		c7.38-2,14.11-1.38,20.39,3.13c3.65,2.62,7.33,5.2,11.09,7.64c7.38,4.79,14.87,5.26,22.46,0.39c2.3-1.48,4.75-2.73,7.13-4.09
		c0.27,0.41,0.54,0.81,0.81,1.22c-0.95,0.68-1.84,1.51-2.87,2.02c-5.03,2.49-7.4,6.91-6.18,11.7c1.06,4.15,5.25,7.46,9.53,7.51
		c4.63,0.06,8.94-3.48,9.99-8.22c0.98-4.42-1.62-8.71-6.53-11.11c-1.15-0.56-2.03-1.69-3.03-2.55c0.92-1.03,1.65-2.43,2.8-3.05
		c6.48-3.48,13.29-4.45,20.13-1.28c8.43,3.91,17.04,7.59,24.99,12.35c9.43,5.65,17.89,4.9,26.39-1.37c0.78-0.58,1.58-1.14,2.64-1.9
		c-0.86,2.6-1.93,4.78-2.29,7.08c-1.03,6.65,3.33,12.48,10.04,13.83c5.59,1.12,11.75-2.7,13.65-8.47c1.99-6.02-1.22-12.7-7.17-15.19
		c-1.52-0.64-2.88-1.67-4.31-2.52c1.75-0.91,3.45-2.46,5.26-2.59c3.42-0.26,7.06-0.31,10.32,0.61c11.09,3.13,20.62,8.39,27.34,18.55
		c4.45,6.73,10.67,12.28,16.01,18.43c2.39,2.75,4.96,5.46,6.77,8.58c2.76,4.76,0.47,8.75-5.08,8.73c-3.41-0.02-6.86-1.08-10.22-1.94
		c-3.54-0.9-7-2.1-10.48-3.21c-8.61-2.73-16.72-1.75-24.33,3.19c-2.23,1.45-4.59,2.7-6.83,4.13c-8.46,5.38-17.45,7.32-27.11,3.88
		c-14.45-5.15-28.28-4.19-41.82,3.19c-7.06,3.85-14.61,2.12-21.94,0.44c-4.69-1.07-9.29-2.53-13.94-3.8
		c-7.54-2.06-14.94-2.36-22.52,0.37c-7.41,2.66-15.19,4.2-23.01,1.92c-3.58-1.05-7.17-2.69-10.22-4.82
		c-12.27-8.56-24.88-10.9-38.97-4.32c-3.97,1.86-9.04,2.17-13.5,1.83c-2.32-0.18-5.08-2.98-6.3-5.3c-0.6-1.14,1.56-4.16,3.01-5.86
		c9.81-11.49,19.7-22.91,29.73-34.2c1.96-2.21,4.51-4.07,7.11-5.49C137.75,340.58,142.51,338.61,147.8,336.14z"/>
	<path class="st1" d="M164.8,287.61c0.09,1.89,0.16,3.34,0.22,4.7c-7.19,3.19-10.09,7.4-8.88,12.69c1.04,4.52,5.72,8,10.37,7.69
		c4.77-0.31,8.79-4.13,9.37-8.9c0.6-5.01-2.62-8.94-9.3-11.25c-1.59-4.82,1.06-6.68,5.2-6.21c6.37,0.72,12.82,1.61,18.95,3.4
		c8.88,2.6,17.55,5.31,26.72,1.66c3.53-1.41,6.94-3.68,10.58-4.13c5.51-0.69,11.19-0.31,16.77,0.02c1.45,0.08,2.81,1.65,4.21,2.53
		c-1.12,1.14-2.07,2.58-3.4,3.35c-4.24,2.45-6.5,6.85-5.46,11.29c0.97,4.14,5.14,7.54,9.4,7.68c4.45,0.14,8.68-3.06,9.98-7.56
		c1.35-4.68-1.14-9.21-6.21-11.63c-1.25-0.59-2.29-1.62-3.42-2.45c0.35-0.53,0.69-1.07,1.04-1.6c5.49,2.56,10.9,5.33,16.51,7.61
		c7.21,2.94,14.47,5.8,21.9,8.09c5.77,1.78,9.1-0.4,11.15-6.1c0.22-0.62,0.35-1.28,0.54-1.91c1.33-4.24,2.8-8.38,8.24-8.7
		c5.21-0.31,10.77,2.93,12.91,7.48c7,14.91,15.86,28.42,28.51,39.28c1.73,1.49,2.19,4.46,3.24,6.74c-2.26,0.72-4.7,2.37-6.76,1.98
		c-5.31-1.02-10.5-2.76-15.63-4.53c-6.09-2.1-11.95-4.98-18.14-6.68c-6.22-1.71-12.22-0.05-17.47,3.78
		c-21.7,15.8-20.35,12.83-39.71,2.15c-0.72-0.4-1.56-0.6-2.25-1.05c-15.97-10.32-31.41-9.82-46.61,1.82
		c-6.04,4.63-12.49,3.61-18.58-0.38c-3.2-2.1-6.39-4.22-9.41-6.56c-7.72-5.98-16.19-6.61-25-3.34c-5.44,2.02-10.45,5.2-15.93,7.04
		c-4.62,1.55-9.62,2.48-14.49,2.64c-4.35,0.15-5.43-2.68-2.98-6.34c0.81-1.22,1.98-2.23,3.1-3.2c9.66-8.41,17.79-18.16,23.04-29.8
		C150.7,290.9,157.45,289.59,164.8,287.61z"/>
	<path class="st1" d="M207.39,243.5c7.71,2.61,15.41,5.74,23.38,7.77c9.36,2.38,18.14,0.84,26.64-4.65
		c4.96-3.2,11.26-4.69,17.18-5.96c6.07-1.3,6.65-0.37,6.87,5.92c-10.44,5.96-12.81,9.76-10.53,16.86c1.73,5.41,7.21,9.16,12.61,8.62
		c5.8-0.57,10.57-5.19,11.33-10.95c0.83-6.32-3.03-11.06-11.71-14.13c0-1.67,0-3.44,0-6.04c5.79,2.11,11.3,4.05,16.72,6.18
		c0.73,0.29,1.29,1.5,1.55,2.4c4.49,14.94,13.61,26.47,26.01,35.62c0.53,0.39,1,0.88,1.44,1.37c0.21,0.23,0.29,0.58,0.65,1.33
		c-3.48,2.36-7.08,1.86-10.64,0.44c-3.08-1.23-5.97-2.97-9.08-4.09c-7.01-2.52-12.71-0.12-14.42,6.97c-2.25,9.34-5.8,9.97-13.69,7
		c-9.31-3.5-18.39-7.62-27.46-11.74c-12.47-5.66-24.68-6.89-37.31-0.09c-7.4,3.98-15.56,2.45-22.78-0.64
		c-15.1-6.48-29.22-4.25-43.1,3.12c-4.29,2.28-8.38,1.92-12.26-0.61c-2.99-1.95-3.99-4.24-0.58-7.12
		c10.11-8.51,17.28-19.23,22.96-31.07c0.89-1.85,2.91-3.3,4.69-4.53c2.85-1.95,6.09-3.33,8.88-5.35
		c11.29-8.16,19.58-5.51,29.47,0.74c1.26,0.8,1.47,3.26,2.24,5.15c-5.43,1.96-9.53,4.27-9.63,10.17c-0.08,5.08,3.14,9.27,7.83,10.03
		c5.26,0.85,9.78-1.82,11.35-6.7c1.52-4.71-0.83-9.88-5.44-12.01C207.24,245.98,207.24,245.98,207.39,243.5z"/>
	<path class="st1" d="M185.14,194.94c-6.62,2.98-11.35,7.06-8.52,14.87c1.56,4.32,5.26,6.41,9.86,6.22c4.5-0.18,8.35-4.03,9.09-8.62
		c0.81-5.04-1.69-8.27-9.43-12.16c5.45-10.22,23.16-15.34,32.3-8.97c5.69,3.96,11.35,4.84,17.89,2.79
		c3.94-1.23,8.12-1.69,12.78-1.69c-7.03,3.59-11.68,8.02-8.19,16.11c1.75,4.07,5.46,5.97,9.78,5.41c4.7-0.62,7.84-3.48,8.65-8.37
		c0.89-5.32-1.43-8.36-9.95-12.61c3.84-1.95,6.8-0.67,9.3,1.2c4.6,3.43,9.3,5.67,15.27,4.26c0.9-0.21,2.71,1.05,3.25,2.08
		c7.65,14.62,17.9,27.18,29.86,38.45c3.58,3.38,2.68,6.82-2.25,7.01c-5.98,0.23-12.57,0.18-17.94-2.07
		c-13.06-5.47-24.83-4.39-36.36,3.44c-8,5.43-16.84,5.03-25.41,2.14c-7.19-2.42-14.31-5.45-20.87-9.25
		c-11.08-6.41-20.95-6.51-31.28,1.82c-3.38,2.72-8.86,3.41-13.47,3.76c-2.03,0.15-4.94-2.52-6.19-4.65
		c-0.68-1.16,0.98-4.08,2.13-5.85c7.07-10.83,14.52-21.41,21.36-32.39C179.03,194.34,181.51,194.24,185.14,194.94z"/>
	<path class="st1" d="M280.78,174.54c-0.97,9.47-11.49,15.96-19.19,10.83c-8.89-5.92-17.57-4.91-26.66-2.17
		c-4.68,1.41-8.69,0.85-12.79-1.74c-8.83-5.59-16.28-4.82-25.03,0.98c-4,2.65-8.92,4.24-13.65,5.34c-2.13,0.5-5.94-0.7-6.9-2.34
		c-0.89-1.51,0.38-5.16,1.82-7c5.53-7.08,11.35-13.94,17.34-20.64c8.89-9.96,14.78-21.62,19.94-33.75
		c3.89-9.14,14.97-12.2,22.97-6.48c4.67,3.34,8.3,7.29,10.97,12.54c6.91,13.57,16.15,25.53,26.6,36.61
		C278.21,168.86,279.28,171.91,280.78,174.54z"/>
	<path class="st2" d="M211.29,72.47c11.21,0.12,11.18,0.11,15.89-10.36c1.16-2.57,2.33-5.19,3.92-7.49c2.31-3.33,5.16-3.17,6.85,0.5
		c1.59,3.44,2.5,7.2,3.66,10.84c2.3,7.25,3.98,8.6,11.66,9.33c2.81,0.27,5.71,0.32,8.39,1.09c2.03,0.58,3.78,2.15,5.66,3.28
		c-1.16,1.89-1.98,4.16-3.57,5.57c-2.72,2.42-5.91,4.31-8.91,6.41c-3.64,2.55-5.27,5.69-3.92,10.3c1.07,3.65,1.82,7.46,2.12,11.25
		c0.15,1.92-0.45,4.57-1.74,5.7c-0.88,0.77-3.84-0.06-5.38-0.99c-3.27-1.96-6.31-4.34-9.29-6.73c-3.68-2.96-7.29-3.42-11.44-0.88
		c-3.68,2.25-7.48,4.38-11.45,6.04c-4.22,1.77-6.13,0.22-5.51-4.33c0.4-2.93,1.41-5.8,2.38-8.61c3.61-10.4,3.63-10.38-4.61-17.92
		c-1.96-1.8-3.99-3.57-5.69-5.6c-3.33-3.99-2.23-6.72,2.98-7.33C205.93,72.22,208.63,72.47,211.29,72.47z"/>
	<path class="st1" d="M252.27,426.78c-1.77,0.42-2.93,0.59-4.01,0.96c-9.83,3.42-19.33,5.2-29.12-0.99
		c-3.68-2.32-8.9-2.22-13.76-3.31c0.9-5.14,1.83-10.43,2.83-16.13c14.22,3.94,28.27,9.1,42.99-0.1
		C251.59,414.33,251.92,420.4,252.27,426.78z"/>
	<path class="st2" d="M304.3,365.2c-5.68-0.06-10.59-4.9-10.57-10.42c0.03-5.85,5.05-10.72,10.93-10.6
		c5.74,0.13,10.15,4.82,10.08,10.73C314.68,360.83,310.17,365.26,304.3,365.2z"/>
	<path class="st2" d="M293.11,259.85c0.04,5.77-4.53,10.46-10.28,10.55c-5.74,0.09-10.56-4.47-10.73-10.17
		c-0.18-5.87,4.72-10.88,10.6-10.84C288.5,249.44,293.07,254.03,293.11,259.85z"/>
	<path class="st2" d="M148.73,343.56c5.73,0.01,10.53,4.72,10.56,10.34c0.03,5.58-4.79,10.56-10.35,10.72
		c-5.67,0.16-10.85-5.02-10.79-10.78C138.21,348.14,142.94,343.55,148.73,343.56z"/>
	<path class="st2" d="M249.72,190.91c4.72,0.02,8.45,3.84,8.4,8.59c-0.05,4.82-3.71,8.25-8.69,8.14c-4.59-0.1-8.29-3.76-8.27-8.2
		C241.19,194.72,245.03,190.89,249.72,190.91z"/>
	<path class="st2" d="M174.75,303.05c-0.06,4.87-3.76,8.45-8.56,8.29c-4.51-0.15-8.19-3.88-8.2-8.31c-0.01-4.76,3.77-8.62,8.44-8.61
		C171.17,294.43,174.8,298.19,174.75,303.05z"/>
	<path class="st2" d="M121.9,401.4c4.58-0.01,8.33,3.95,8.27,8.73c-0.06,4.71-3.42,8.07-8.14,8.13c-4.76,0.07-8.69-3.67-8.73-8.29
		C113.26,405.41,117.28,401.41,121.9,401.4z"/>
	<path class="st2" d="M194.34,205.89c-0.01,4.89-3.61,8.38-8.55,8.28c-4.55-0.08-8.25-3.7-8.37-8.17c-0.12-4.56,3.87-8.65,8.48-8.7
		C190.55,197.25,194.36,201.12,194.34,205.89z"/>
	<path class="st2" d="M215.12,256.38c0.03,4.72-3.81,8.59-8.48,8.55c-4.3-0.04-8.28-3.9-8.46-8.21c-0.17-4.29,4.09-8.74,8.41-8.78
		C211.38,247.9,215.09,251.56,215.12,256.38z"/>
	<path class="st2" d="M258.52,302.55c-0.03,4.72-3.47,8.21-8.15,8.27c-4.79,0.06-8.67-3.74-8.65-8.46c0.02-4.71,3.92-8.35,8.8-8.23
		C255.2,294.26,258.55,297.79,258.52,302.55z"/>
	<path class="st2" d="M224.95,352.83c-0.01,4.76-3.29,8.15-8.03,8.28c-4.59,0.13-8.69-3.25-8.61-7.74c0.03-1.59,1.66-3.25,2.8-4.69
		c1.15-1.47,2.38-3.43,3.95-3.91C220.16,343.22,224.96,347.35,224.95,352.83z"/>
</g>
<circle class="st2" cx="337.01" cy="408.87" r="10.75"/>
</svg>
